<?xml version="1.0" encoding="UTF-8" standalone="no"?>
<!-- Created with Inkscape (http://www.inkscape.org/) -->

<svg
   xmlns:dc="http://purl.org/dc/elements/1.1/"
   xmlns:cc="http://creativecommons.org/ns#"
   xmlns:rdf="http://www.w3.org/1999/02/22-rdf-syntax-ns#"
   xmlns:svg="http://www.w3.org/2000/svg"
   xmlns="http://www.w3.org/2000/svg"
   xmlns:xlink="http://www.w3.org/1999/xlink"
   xmlns:sodipodi="http://sodipodi.sourceforge.net/DTD/sodipodi-0.dtd"
   xmlns:inkscape="http://www.inkscape.org/namespaces/inkscape"
   width="210mm"
   height="297mm"
   viewBox="0 0 210 297"
   version="1.1"
   id="svg13305"
   sodipodi:docname="logo-complete.svg"
   inkscape:version="0.92.2 (5c3e80d, 2017-08-06)">
  <sodipodi:namedview
     pagecolor="#ffffff"
     bordercolor="#666666"
     borderopacity="1"
     objecttolerance="10"
     gridtolerance="10"
     guidetolerance="10"
     inkscape:pageopacity="0"
     inkscape:pageshadow="2"
     inkscape:window-width="1920"
     inkscape:window-height="1027"
     id="namedview15947"
     showgrid="false"
     inkscape:zoom="0.62441667"
     inkscape:cx="-69.704792"
     inkscape:cy="495.29542"
     inkscape:window-x="-8"
     inkscape:window-y="-8"
     inkscape:window-maximized="1"
     inkscape:current-layer="layer4" />
  <defs
     id="defs13299">
    <linearGradient
       id="linearGradient24638">
      <stop
         id="stop24632"
         offset="0"
         style="stop-color:#070f32;stop-opacity:1" />
      <stop
         style="stop-color:#212c5f;stop-opacity:1"
         offset="0.48570052"
         id="stop24634" />
      <stop
         id="stop24636"
         offset="1"
         style="stop-color:#263788;stop-opacity:1" />
    </linearGradient>
    <linearGradient
       id="linearGradient24623">
      <stop
         style="stop-color:#070f32;stop-opacity:1"
         offset="0"
         id="stop24619" />
      <stop
         id="stop24630"
         offset="0.50069237"
         style="stop-color:#212c5f;stop-opacity:1" />
      <stop
         style="stop-color:#263788;stop-opacity:1"
         offset="1"
         id="stop24621" />
    </linearGradient>
    <linearGradient
       id="linearGradient24599">
      <stop
         id="stop24595"
         offset="0"
         style="stop-color:#ffe804;stop-opacity:1" />
      <stop
         style="stop-color:#ffc91b;stop-opacity:1"
         offset="0.54618984"
         id="stop24601" />
      <stop
         id="stop24597"
         offset="1"
         style="stop-color:#c89221;stop-opacity:1" />
    </linearGradient>
    <linearGradient
       id="linearGradient24182">
      <stop
         id="stop24178"
         offset="0"
         style="stop-color:#141a31;stop-opacity:1" />
      <stop
         id="stop24180"
         offset="1"
         style="stop-color:#1d3180;stop-opacity:1" />
    </linearGradient>
    <linearGradient
       xlink:href="#linearGradient8691"
       id="linearGradient8693"
       x1="-177.82712"
       y1="97.055786"
       x2="-150.14687"
       y2="97.055786"
       gradientUnits="userSpaceOnUse" />
    <linearGradient
       id="linearGradient8691">
      <stop
         style="stop-color:#141a31;stop-opacity:1"
         offset="0"
         id="stop8687" />
      <stop
         style="stop-color:#1d3180;stop-opacity:1"
         offset="1"
         id="stop8689" />
    </linearGradient>
    <linearGradient
       xlink:href="#linearGradient8677"
       id="linearGradient8679"
       x1="-187.14726"
       y1="78.934685"
       x2="-159.47401"
       y2="78.934685"
       gradientUnits="userSpaceOnUse" />
    <linearGradient
       id="linearGradient8677">
      <stop
         style="stop-color:#f6e90f;stop-opacity:1"
         offset="0"
         id="stop8673" />
      <stop
         style="stop-color:#d98f14;stop-opacity:1"
         offset="1"
         id="stop8675" />
    </linearGradient>
    <linearGradient
       xlink:href="#linearGradient8677"
       id="linearGradient8685"
       gradientUnits="userSpaceOnUse"
       x1="-187.14726"
       y1="78.934685"
       x2="-159.47401"
       y2="78.934685"
       gradientTransform="rotate(90,-168.59983,87.991733)" />
    <linearGradient
       xlink:href="#linearGradient24182"
       id="linearGradient8697"
       gradientUnits="userSpaceOnUse"
       x1="-177.82712"
       y1="97.055786"
       x2="-150.14687"
       y2="97.055786"
       gradientTransform="rotate(90,-168.699,87.996418)" />
    <linearGradient
       xlink:href="#linearGradient24182"
       id="linearGradient8693-4"
       x1="-177.82712"
       y1="97.055786"
       x2="-150.14687"
       y2="97.055786"
       gradientUnits="userSpaceOnUse" />
    <linearGradient
       xlink:href="#linearGradient8677"
       id="linearGradient8679-5"
       x1="-187.14726"
       y1="78.934685"
       x2="-159.47401"
       y2="78.934685"
       gradientUnits="userSpaceOnUse" />
    <linearGradient
       xlink:href="#linearGradient8677"
       id="linearGradient8685-8"
       gradientUnits="userSpaceOnUse"
       x1="-187.14726"
       y1="78.934685"
       x2="-159.47401"
       y2="78.934685"
       gradientTransform="rotate(90,-168.59983,87.991733)" />
    <linearGradient
       xlink:href="#linearGradient24182"
       id="linearGradient8697-3"
       gradientUnits="userSpaceOnUse"
       x1="-177.82712"
       y1="97.055786"
       x2="-150.14687"
       y2="97.055786"
       gradientTransform="rotate(90,-168.699,87.996418)" />
    <linearGradient
       xlink:href="#linearGradient24623"
       id="linearGradient8693-4-3"
       x1="-177.82712"
       y1="97.055786"
       x2="-150.14687"
       y2="97.055786"
       gradientUnits="userSpaceOnUse"
       gradientTransform="matrix(1.13812,0,0,1.1409286,165.17913,26.0722)" />
    <linearGradient
       xlink:href="#linearGradient24599"
       id="linearGradient8679-5-6"
       x1="-187.14726"
       y1="78.934685"
       x2="-159.47401"
       y2="78.934685"
       gradientUnits="userSpaceOnUse"
       gradientTransform="matrix(1.13812,0,0,1.1409286,165.17913,26.0722)" />
    <linearGradient
       xlink:href="#linearGradient24599"
       id="linearGradient8685-8-9"
       gradientUnits="userSpaceOnUse"
       x1="-187.14726"
       y1="78.934685"
       x2="-159.47401"
       y2="78.934685"
       gradientTransform="matrix(0,1.1409286,-1.13812,0,73.437443,318.82485)" />
    <linearGradient
       xlink:href="#linearGradient24182"
       id="linearGradient8697-3-2"
       gradientUnits="userSpaceOnUse"
       x1="-177.82712"
       y1="97.055786"
       x2="-150.14687"
       y2="97.055786"
       gradientTransform="matrix(0,1.1409286,-1.13812,0,73.329907,318.94334)" />
    <linearGradient
       xlink:href="#linearGradient24182"
       id="linearGradient8693-4-3-3"
       x1="-177.82712"
       y1="97.055786"
       x2="-150.14687"
       y2="97.055786"
       gradientUnits="userSpaceOnUse" />
    <linearGradient
       xlink:href="#linearGradient8677"
       id="linearGradient8679-5-6-3"
       x1="-187.14726"
       y1="78.934685"
       x2="-159.47401"
       y2="78.934685"
       gradientUnits="userSpaceOnUse" />
    <linearGradient
       inkscape:collect="always"
       xlink:href="#linearGradient24638"
       id="linearGradient24617"
       gradientUnits="userSpaceOnUse"
       gradientTransform="matrix(0,1.1409286,-1.13812,0,73.329907,318.94334)"
       x1="-177.8271"
       y1="97.124535"
       x2="-150.09087"
       y2="97.095467" />
    <linearGradient
       inkscape:collect="always"
       xlink:href="#linearGradient24623"
       id="linearGradient24672"
       gradientUnits="userSpaceOnUse"
       gradientTransform="matrix(1.13812,0,0,1.1409286,165.17913,26.0722)"
       x1="-177.82712"
       y1="97.055786"
       x2="-150.14687"
       y2="97.055786" />
    <linearGradient
       inkscape:collect="always"
       xlink:href="#linearGradient24599"
       id="linearGradient24674"
       gradientUnits="userSpaceOnUse"
       gradientTransform="matrix(1.13812,0,0,1.1409286,165.17913,26.0722)"
       x1="-187.14726"
       y1="78.934685"
       x2="-159.47401"
       y2="78.934685" />
    <linearGradient
       inkscape:collect="always"
       xlink:href="#linearGradient24599"
       id="linearGradient24676"
       gradientUnits="userSpaceOnUse"
       gradientTransform="matrix(0,1.1409286,-1.13812,0,73.437443,318.82485)"
       x1="-187.14726"
       y1="78.934685"
       x2="-159.47401"
       y2="78.934685" />
    <linearGradient
       inkscape:collect="always"
       xlink:href="#linearGradient24638"
       id="linearGradient24678"
       gradientUnits="userSpaceOnUse"
       gradientTransform="matrix(0,1.1409286,-1.13812,0,73.329907,318.94334)"
       x1="-177.8271"
       y1="97.124535"
       x2="-150.09087"
       y2="97.095467" />
  </defs>
  <metadata
     id="metadata13302">
    <rdf:RDF>
      <cc:Work
         rdf:about="">
        <dc:format>image/svg+xml</dc:format>
        <dc:type
           rdf:resource="http://purl.org/dc/dcmitype/StillImage" />
        <dc:title></dc:title>
      </cc:Work>
    </rdf:RDF>
  </metadata>
  <flowRoot
     xml:space="preserve"
     id="flowRoot24184"
     style="font-style:normal;font-variant:normal;font-weight:bold;font-stretch:normal;font-size:18.66666603px;line-height:1.25;font-family:'Comic Sans MS';-inkscape-font-specification:'Comic Sans MS Bold';letter-spacing:0px;word-spacing:0px;fill:#000000;fill-opacity:1;stroke:none"
     transform="matrix(0.26458333,0,0,0.26458333,0,247)"><flowRegion
       id="flowRegion24186"
       style="font-style:normal;font-variant:normal;font-weight:bold;font-stretch:normal;font-family:'Comic Sans MS';-inkscape-font-specification:'Comic Sans MS Bold'"><rect
         id="rect24188"
         width="96.089684"
         height="237.02122"
         x="-257.84064"
         y="-421.19312"
         style="font-style:normal;font-variant:normal;font-weight:bold;font-stretch:normal;font-family:'Comic Sans MS';-inkscape-font-specification:'Comic Sans MS Bold'" /></flowRegion><flowPara
       id="flowPara24190"></flowPara></flowRoot>  <g
     inkscape:groupmode="layer"
     id="layer4"
     inkscape:label="Logo Baku"
     transform="translate(0,247)">
    <g
       id="g24810"
       transform="translate(-30.084748,-293.09652)">
      <g
         transform="translate(107.2645,-31.160637)"
         id="g24658">
        <path
           id="path8561-3-7"
           d="m -37.209472,136.88435 h 20.777769 v -0.008 c 5.955179,-0.0812 10.7256773,-4.90964 10.7256773,-10.898 v 10.75357 c 0,6.0394 -4.8519873,10.90155 -10.8780483,10.90155 h -9.751469 c -5.97513,0 -10.792883,-4.78048 -10.873929,-10.74884 z"
           style="opacity:1;fill:url(#linearGradient8693-4-3);fill-opacity:1;stroke:#4d4d4d;stroke-width:0;stroke-linecap:square;stroke-miterlimit:4;stroke-dasharray:none;stroke-opacity:1"
           inkscape:connector-curvature="0" />
        <path
           id="path8565-4-9"
           d="m -16.321442,116.0526 h -20.772511 v 0.008 c -5.953676,0.0812 -10.722968,4.90964 -10.722968,10.898 v -10.75356 c 0,-6.03938 4.850759,-10.90153 10.875294,-10.90153 h 9.749 c 5.973627,0 10.790163,4.78047 10.871185,10.74882 z"
           style="opacity:1;fill:url(#linearGradient8679-5-6);fill-opacity:1;stroke:#4d4d4d;stroke-width:0;stroke-linecap:square;stroke-miterlimit:4;stroke-dasharray:none;stroke-opacity:1"
           inkscape:connector-curvature="0" />
        <path
           style="opacity:1;fill:url(#linearGradient8685-8-9);fill-opacity:1;stroke:#4d4d4d;stroke-width:0;stroke-linecap:square;stroke-miterlimit:4;stroke-dasharray:none;stroke-opacity:1"
           d="M -16.321442,136.87637 V 116.0526 h -0.008 c -0.08103,-5.96837 -4.897558,-10.74943 -10.871175,-10.74943 h 10.727089 c 6.024513,0 10.8746906,4.86273 10.8746906,10.90213 v 9.77306 c 0,5.98837 -4.7686996,10.81679 -10.7223646,10.89801 z"
           id="path8681-6"
           inkscape:connector-curvature="0" />
        <path
           style="opacity:1;fill:url(#linearGradient24617);fill-opacity:1;stroke:#4d4d4d;stroke-width:0;stroke-linecap:square;stroke-miterlimit:4;stroke-dasharray:none;stroke-opacity:1"
           d="m -37.209472,116.05531 v 13.23494 7.5941 h 0.008 c 0.08103,5.96988 4.897558,10.75215 10.871174,10.75215 H -37.05743 c -6.024525,0 -10.874703,-4.86396 -10.874703,-10.9049 v -9.77553 c 0,-5.98988 4.768712,-10.81952 10.722377,-10.90076 z"
           id="path8695-1"
           inkscape:connector-curvature="0"
           sodipodi:nodetypes="cccccssscc" />
      </g>
      <path
         inkscape:connector-curvature="0"
         id="path24289-1"
         d="m 80.503862,121.5675 c -0.583047,0 -1.075775,0.16997 -1.477428,0.50902 -0.388684,0.33904 -0.582912,0.88524 -0.582912,1.63866 0,0.74087 0.194228,1.28706 0.582912,1.63866 0.401653,0.35161 0.894381,0.5271 1.477428,0.5271 0.570097,0 1.055612,-0.17549 1.457276,-0.5271 0.414606,-0.36415 0.622184,-0.91034 0.622184,-1.63866 0,-0.37671 -0.05855,-0.69697 -0.175183,-0.96067 -0.103654,-0.27626 -0.252655,-0.50219 -0.447001,-0.67799 -0.181395,-0.17579 -0.40129,-0.30142 -0.660425,-0.37672 -0.246174,-0.0879 -0.511813,-0.1323 -0.796851,-0.1323 z m -10.251054,0.0382 0.07493,0.97049 c -0.04817,0.14341 -0.07493,0.29627 -0.07493,0.4563 v 7.2378 c -0.09217,-0.10032 -0.187023,-0.19953 -0.287837,-0.29662 -0.312788,-0.30126 -0.672394,-0.56624 -1.079003,-0.79479 -0.396211,-0.22854 -0.845214,-0.41013 -1.345655,-0.54518 -0.500462,-0.13504 -1.057616,-0.20257 -1.672767,-0.20257 -0.969634,0 -1.855941,0.19183 -2.658753,0.57619 -0.802809,0.37398 -1.491028,0.93515 -2.064472,1.6831 -0.573424,0.74795 -1.016847,1.67743 -1.329635,2.78898 -0.312779,1.10114 -0.469222,2.38413 -0.469222,3.84886 0,1.45436 -0.12904,0.50075 0.417028,3.85971 0.546071,3.35897 3.131995,5.2296 6.105054,4.97541 0.62557,0 1.188336,-0.0669 1.688788,-0.20206 0.500459,-0.13504 0.948936,-0.32227 1.345136,-0.5612 0.40662,-0.23893 0.76114,-0.51414 1.063501,-0.82579 0.165642,-0.17054 0.318246,-0.34573 0.460436,-0.52504 v 1.99523 l 3.176034,0.0129 c 0.07966,-8.05187 0.02274,-16.33147 0.02274,-24.45174 h -1.945618 z m 24.955066,6.64766 c -1.869128,0.002 -3.599465,0.76075 -4.69532,2.0066 h -0.130742 v -1.61851 h -3.446301 v 24.67601 h 0.451652 2.845821 0.148828 l 0.09095,-8.92503 a 5.6821942,5.0446111 0 0 0 4.495333,1.96835 5.6821942,5.0446111 0 0 0 3.950146,-1.42523 c 0.01579,-0.0126 0.03133,-0.0258 0.04702,-0.0388 a 5.6821942,5.0446111 0 0 0 0.09509,-0.0816 c 0.291296,-0.25007 0.561052,-0.53166 0.806669,-0.84905 0.57344,-0.72754 1.01686,-1.62743 1.32963,-2.69854 0.31279,-1.0812 0.46923,-2.33418 0.46923,-3.75895 0,-0.56211 -0.0261,-1.0956 -0.0755,-1.60351 -0.0156,-6.03059 -3.353779,-7.5804 -6.382559,-7.65173 z m -16.355592,0.43873 v 19.74505 c 0,0.51534 -0.05635,0.93496 -0.168462,1.25832 -0.100905,0.33346 -0.251905,0.59608 -0.453721,0.78807 -0.190611,0.2021 -0.414954,0.33848 -0.672828,0.40928 -0.257863,0.0808 -0.538056,0.12092 -0.840774,0.12092 -0.392417,0 -0.740103,-0.0303 -1.042831,-0.0909 -0.302718,-0.0505 -0.599903,-0.12633 -0.891419,-0.22738 v 2.24328 c 0.257874,0.11115 0.566232,0.20205 0.92501,0.27285 0.347573,0.0707 0.790414,0.10594 1.3286,0.10594 v 5.1e-4 c 0.840891,0 1.563931,-0.12128 2.169377,-0.3638 0.616659,-0.23241 1.127024,-0.57135 1.530657,-1.01596 0.403629,-0.4345 0.700816,-0.96461 0.891417,-1.59112 0.190653,-0.61638 0.285771,-1.31379 0.285771,-2.09186 v -19.56314 z m 15.323097,2.77503 c 3.280029,-0.0693 3.748609,2.5945 3.748609,5.79499 0,3.20047 -0.863064,5.92663 -3.748609,5.795 -2.98768,-0.13627 -3.748092,-2.59452 -3.748092,-5.795 0,-3.20049 0.46861,-5.72573 3.748092,-5.79499 z m -27.638622,0.12609 c 3.280029,-0.0693 3.74809,2.59504 3.748092,5.79551 0,3.20048 -0.862557,5.92662 -3.748092,5.79499 -2.987681,-0.13628 -3.748609,-2.59451 -3.748609,-5.79499 0,-3.20048 0.469127,-5.72627 3.748609,-5.79551 z m 27.876334,12.27728 h 0.394291 c -0.0594,0.002 -0.118978,0.005 -0.179834,0.005 -0.0731,0 -0.14351,-0.003 -0.214457,-0.005 z"
         style="font-style:normal;font-variant:normal;font-weight:normal;font-stretch:normal;font-size:medium;line-height:1.25;font-family:'Droid Sans';-inkscape-font-specification:'Droid Sans';letter-spacing:0px;word-spacing:0px;display:inline;opacity:1;fill:#212c5f;fill-opacity:1;stroke:none;stroke-width:1.1363157;stroke-miterlimit:4;stroke-dasharray:none;stroke-opacity:1" />
    </g>
    <g
       id="g38851">
      <g
         id="g24668"
         transform="matrix(0.75000003,0,0,0.75000003,65.196527,-200.57912)">
        <path
           inkscape:connector-curvature="0"
           style="opacity:1;fill:url(#linearGradient24672);fill-opacity:1;stroke:#4d4d4d;stroke-width:0;stroke-linecap:square;stroke-miterlimit:4;stroke-dasharray:none;stroke-opacity:1"
           d="m -37.209472,136.88435 h 20.777769 v -0.008 c 5.955179,-0.0812 10.7256773,-4.90964 10.7256773,-10.898 v 10.75357 c 0,6.0394 -4.8519873,10.90155 -10.8780483,10.90155 h -9.751469 c -5.97513,0 -10.792883,-4.78048 -10.873929,-10.74884 z"
           id="path24660" />
        <path
           inkscape:connector-curvature="0"
           style="opacity:1;fill:url(#linearGradient24674);fill-opacity:1;stroke:#4d4d4d;stroke-width:0;stroke-linecap:square;stroke-miterlimit:4;stroke-dasharray:none;stroke-opacity:1"
           d="m -16.321442,116.0526 h -20.772511 v 0.008 c -5.953676,0.0812 -10.722968,4.90964 -10.722968,10.898 v -10.75356 c 0,-6.03938 4.850759,-10.90153 10.875294,-10.90153 h 9.749 c 5.973627,0 10.790163,4.78047 10.871185,10.74882 z"
           id="path24662" />
        <path
           inkscape:connector-curvature="0"
           id="path24664"
           d="M -16.321442,136.87637 V 116.0526 h -0.008 c -0.08103,-5.96837 -4.897558,-10.74943 -10.871175,-10.74943 h 10.727089 c 6.024513,0 10.8746906,4.86273 10.8746906,10.90213 v 9.77306 c 0,5.98837 -4.7686996,10.81679 -10.7223646,10.89801 z"
           style="opacity:1;fill:url(#linearGradient24676);fill-opacity:1;stroke:#4d4d4d;stroke-width:0;stroke-linecap:square;stroke-miterlimit:4;stroke-dasharray:none;stroke-opacity:1" />
        <path
           sodipodi:nodetypes="cccccssscc"
           inkscape:connector-curvature="0"
           id="path24666"
           d="m -37.209472,116.05531 v 13.23494 7.5941 h 0.008 c 0.08103,5.96988 4.897558,10.75215 10.871174,10.75215 H -37.05743 c -6.024525,0 -10.874703,-4.86396 -10.874703,-10.9049 v -9.77553 c 0,-5.98988 4.768712,-10.81952 10.722377,-10.90076 z"
           style="opacity:1;fill:url(#linearGradient24678);fill-opacity:1;stroke:#4d4d4d;stroke-width:0;stroke-linecap:square;stroke-miterlimit:4;stroke-dasharray:none;stroke-opacity:1" />
      </g>
      <path
         style="font-style:normal;font-variant:normal;font-weight:normal;font-stretch:normal;font-size:medium;line-height:1.25;font-family:'Droid Sans';-inkscape-font-specification:'Droid Sans';letter-spacing:0px;word-spacing:0px;display:inline;opacity:1;fill:#212c5f;fill-opacity:1;stroke:none;stroke-width:1.13629675;stroke-miterlimit:4;stroke-dasharray:none;stroke-opacity:1"
         d="m 86.264491,-121.60174 c -0.583042,0 -1.075762,0.16997 -1.477402,0.50901 -0.38868,0.33903 -0.582908,0.88523 -0.582908,1.63863 0,0.74086 0.194228,1.28704 0.582908,1.63864 0.40164,0.3516 0.89436,0.52709 1.477402,0.52709 0.570083,0 1.055595,-0.17549 1.457243,-0.52709 0.414607,-0.36415 0.622185,-0.91033 0.622185,-1.63864 0,-0.3767 -0.0585,-0.69696 -0.175193,-0.96065 -0.103642,-0.27625 -0.252645,-0.50218 -0.446992,-0.67798 -0.181388,-0.17578 -0.40128,-0.30141 -0.660405,-0.37671 -0.24618,-0.0879 -0.5118,-0.1323 -0.796838,-0.1323 z m -10.250888,0.0382 0.07493,0.97047 c -0.04823,0.14341 -0.07493,0.29626 -0.07493,0.45629 v 7.23768 c -0.0922,-0.10031 -0.18702,-0.19952 -0.287827,-0.29661 -0.312788,-0.30126 -0.67239,-0.56623 -1.078995,-0.79478 -0.396203,-0.22853 -0.84519,-0.41012 -1.345628,-0.54517 -0.500445,-0.13504 -1.057597,-0.20257 -1.67274,-0.20257 -0.969615,0 -1.855905,0.19183 -2.658705,0.57618 -0.802792,0.37398 -1.491007,0.93514 -2.064435,1.68308 -0.57342,0.74794 -1.016835,1.6774 -1.329615,2.78893 -0.31278,1.10112 -0.469215,2.38409 -0.469215,3.8488 0,1.45434 -0.129038,0.50074 0.417022,3.85965 0.54606,3.358906 3.131941,5.229503 6.104948,4.975321 0.62556,0 1.188323,-0.0669 1.68876,-0.202058 0.500453,-0.135037 0.94893,-0.322267 1.345118,-0.561195 0.406612,-0.238927 0.76113,-0.514132 1.063485,-0.825772 0.165637,-0.170535 0.318232,-0.345728 0.460425,-0.52503 v 1.995195 l 3.175987,0.0129 c 0.0797,-8.051731 0.02273,-16.331201 0.02273,-24.451331 h -1.945587 z m 24.954637,6.64755 c -1.869094,0.002 -3.599405,0.76073 -4.695223,2.00656 h -0.13074 v -1.61848 h -3.446243 v 24.675598 h 0.451643 2.84577 0.14883 l 0.091,-8.92488 a 5.6820995,5.0445271 0 0 0 4.495233,1.968315 5.6820995,5.0445271 0 0 0 3.95008,-1.425202 c 0.0158,-0.0126 0.0313,-0.0258 0.047,-0.03878 a 5.6820995,5.0445271 0 0 0 0.0951,-0.08159 c 0.29128,-0.250072 0.56103,-0.531652 0.80665,-0.849037 0.57343,-0.72753 1.01684,-1.627404 1.32961,-2.698494 0.31278,-1.08118 0.46922,-2.33414 0.46922,-3.75888 0,-0.5621 -0.0261,-1.09559 -0.0755,-1.60349 -0.0156,-6.03049 -3.35372,-7.58027 -6.38246,-7.6516 z m -16.355301,0.43872 v 19.744723 c 0,0.515325 -0.05633,0.934943 -0.168458,1.258298 -0.100905,0.33345 -0.251902,0.59607 -0.45372,0.788055 -0.190612,0.202095 -0.414945,0.338475 -0.67281,0.409275 -0.257865,0.0808 -0.53805,0.120915 -0.840765,0.120915 -0.392407,0 -0.740092,-0.0303 -1.042815,-0.0909 -0.302715,-0.05047 -0.599887,-0.126323 -0.891405,-0.22737 v 2.243242 c 0.257873,0.111143 0.56622,0.202043 0.924998,0.272843 0.347572,0.07072 0.790402,0.105937 1.328572,0.105937 v 5.1e-4 c 0.840878,0 1.563908,-0.121275 2.169345,-0.363795 0.61665,-0.232402 1.127003,-0.571342 1.530638,-1.015942 0.40362,-0.43449 0.700792,-0.96459 0.89139,-1.591095 0.190657,-0.616365 0.285765,-1.313768 0.285765,-2.091825 v -19.562811 z m 15.322814,2.77498 c 3.279967,-0.0693 3.748547,2.59446 3.748547,5.7949 0,3.20042 -0.86305,5.926531 -3.748547,5.7949 -2.987615,-0.13627 -3.748011,-2.59447 -3.748011,-5.7949 0,-3.20044 0.468609,-5.72563 3.748011,-5.7949 z m -27.638137,0.12609 c 3.279975,-0.0693 3.748027,2.595 3.748027,5.79541 0,3.20043 -0.862537,5.926523 -3.748027,5.794898 -2.987633,-0.136278 -3.748553,-2.594468 -3.748553,-5.794898 0,-3.20042 0.469125,-5.72617 3.748553,-5.79541 z m 27.875854,12.277076 h 0.39428 c -0.0594,0.0023 -0.11898,0.0053 -0.17983,0.0053 -0.0731,0 -0.14352,-0.003 -0.21445,-0.0053 z"
         id="path24670"
         inkscape:connector-curvature="0" />
    </g>
    <g
       id="g24814"
       transform="translate(144.99984,-291.29879)">
      <path
         inkscape:connector-curvature="0"
         id="path8565-4-9-9"
         d="m 33.317669,72.344823 -10.727832,4.9e-4 c 0.007,0 0.01405,4.7e-4 0.02105,4.7e-4 h -9.762273 c -6.0247701,0 -10.8756701,4.86283 -10.8756701,10.90246 v 10.75367 c 0,-5.9886 4.76911,-10.81743 10.7230361,-10.89865 v -0.008 h 20.765705 0.0082 v 19.354057 l 4.78e-4,0.48996 c 5.953907,-0.0813 10.722566,-7.359307 10.722566,-13.347937 v -6.34407 c 0,-6.03964 -4.850437,-10.90247 -10.875198,-10.90247 z M 12.695984,84.083173 C 6.7420739,84.164473 1.9729439,91.442983 1.9729439,97.43161 v 6.34357 c 0,6.03967 4.85045,10.90297 10.8751961,10.90297 l 10.728308,-9.6e-4 c -0.0065,0 -0.01353,-4.7e-4 -0.02058,-4.9e-4 h 9.761795 c 6.024788,0 10.875678,-4.86234 10.875678,-10.90198 V 93.021053 c 0,5.988607 -4.769116,10.816937 -10.723046,10.898157 v 0.009 h -20.765703 -0.0082 V 84.573513 Z"
         style="opacity:1;fill:#000000;fill-opacity:1;stroke:#4d4d4d;stroke-width:0;stroke-linecap:square;stroke-miterlimit:4;stroke-dasharray:none;stroke-opacity:1" />
      <path
         inkscape:connector-curvature="0"
         id="path24289-1-2"
         d="m 23.144447,119.77003 c -0.583041,0 -1.075765,0.16997 -1.477415,0.50902 -0.38868,0.33903 -0.582906,0.88523 -0.582906,1.63864 0,0.74086 0.194226,1.28705 0.582906,1.63865 0.40165,0.3516 0.894374,0.52709 1.477415,0.52709 0.570092,0 1.055603,-0.17549 1.457264,-0.52709 0.414602,-0.36415 0.622178,-0.91034 0.622178,-1.63865 0,-0.37671 -0.05855,-0.69696 -0.175181,-0.96066 -0.103653,-0.27626 -0.252653,-0.50219 -0.446997,-0.67798 -0.181394,-0.17579 -0.401287,-0.30142 -0.66042,-0.37672 -0.246171,-0.0879 -0.511808,-0.1323 -0.796844,-0.1323 z m -10.250963,0.0382 0.07493,0.97048 c -0.04817,0.14341 -0.07493,0.29627 -0.07493,0.4563 v 7.23773 c -0.09217,-0.10032 -0.187022,-0.19953 -0.287835,-0.29661 -0.312785,-0.30126 -0.672388,-0.56624 -1.078993,-0.79479 -0.396208,-0.22854 -0.845207,-0.41012 -1.345643,-0.54517 -0.5004582,-0.13504 -1.0576072,-0.20257 -1.6727532,-0.20257 -0.969625,0 -1.855925,0.19183 -2.658725,0.57618 -0.80281,0.37398 -1.49102,0.93515 -2.06446,1.68309 -0.57342,0.74794 -1.01684,1.67741 -1.32962,2.78895 -0.31278,1.10114 -0.46922,2.38411 -0.46922,3.84883 0,1.45435 -0.12904,0.50075 0.41702,3.85968 0.54607,3.35894 3.13197,5.22955 6.105005,4.97536 0.625565,0 1.188326,-0.0669 1.6887742,-0.20206 0.500454,-0.13503 0.948927,-0.32226 1.345124,-0.56119 0.406616,-0.23893 0.761133,-0.51414 1.063491,-0.82578 0.165641,-0.17054 0.318243,-0.34573 0.460432,-0.52504 v 1.99521 l 3.176006,0.0129 c 0.07966,-8.0518 0.02274,-16.33132 0.02274,-24.45152 h -1.945601 z m 24.954846,6.6476 c -1.869112,0.002 -3.599432,0.76074 -4.695279,2.00658 h -0.13074 v -1.61849 h -3.44627 v 24.67579 h 0.451647 2.845797 0.148826 l 0.09095,-8.92495 a 5.6821442,5.0445666 0 0 0 4.495292,1.96833 5.6821442,5.0445666 0 0 0 3.950112,-1.42522 c 0.0158,-0.0126 0.03133,-0.0258 0.04702,-0.0388 a 5.6821442,5.0445666 0 0 0 0.09509,-0.0816 c 0.291293,-0.25006 0.561047,-0.53165 0.80666,-0.84904 0.573437,-0.72753 1.016851,-1.62741 1.32962,-2.69851 0.312788,-1.08119 0.469224,-2.33416 0.469224,-3.75892 0,-0.56211 -0.02609,-1.09559 -0.0755,-1.6035 -0.0156,-6.03053 -3.35375,-7.58033 -6.382503,-7.65166 z m -16.355448,0.43873 v 19.74487 c 0,0.51534 -0.05635,0.93495 -0.168461,1.25831 -0.100904,0.33346 -0.251902,0.59608 -0.453717,0.78806 -0.190609,0.2021 -0.41495,0.33848 -0.672822,0.40928 -0.25786,0.0808 -0.538051,0.12092 -0.840766,0.12092 -0.392414,0 -0.740097,-0.0303 -1.042822,-0.0909 -0.302715,-0.0505 -0.599898,-0.12633 -0.891411,-0.22738 v 2.24326 c 0.257872,0.11115 0.566227,0.20205 0.925002,0.27285 0.34757,0.0707 0.790407,0.10594 1.328588,0.10594 v 5.3e-4 c 0.840884,0 1.563917,-0.12128 2.169358,-0.3638 0.616653,-0.2324 1.127014,-0.57134 1.530643,-1.01595 0.403626,-0.43449 0.70081,-0.9646 0.89141,-1.5911 0.190651,-0.61638 0.285768,-1.31378 0.285768,-2.09185 v -19.56298 z m 15.322962,2.775 c 3.28,-0.0693 3.748576,2.59448 3.748576,5.79494 0,3.20044 -0.863056,5.92658 -3.748576,5.79495 -2.987654,-0.13627 -3.748059,-2.5945 -3.748059,-5.79495 0,-3.20046 0.468607,-5.72568 3.748059,-5.79494 z m -27.6383782,0.12609 c 3.2800002,-0.0693 3.7480562,2.59502 3.7480582,5.79546 0,3.20045 -0.862549,5.92657 -3.7480582,5.79494 -2.987651,-0.13628 -3.748581,-2.59449 -3.748581,-5.79494 0,-3.20045 0.46913,-5.72622 3.748581,-5.79546 z m 27.8760892,12.27717 h 0.394286 c -0.0594,0.002 -0.118977,0.005 -0.179833,0.005 -0.0731,0 -0.143509,-0.003 -0.214453,-0.005 z"
         style="font-style:normal;font-variant:normal;font-weight:normal;font-stretch:normal;font-size:medium;line-height:1.25;font-family:'Droid Sans';-inkscape-font-specification:'Droid Sans';letter-spacing:0px;word-spacing:0px;display:inline;opacity:1;fill:#000000;fill-opacity:1;stroke:none;stroke-width:1.13630569;stroke-miterlimit:4;stroke-dasharray:none;stroke-opacity:1" />
    </g>
    <g
       id="g38861">
      <path
         inkscape:connector-curvature="0"
         id="path8565-4-9-9-6"
         d="m 52.755963,-12.858853 -8.045869,3.67e-4 c 0.0053,0 0.0105,3.53e-4 0.01582,3.53e-4 h -7.321707 c -4.518576,0 -8.156749,3.647121 -8.156749,8.1768416 v 8.0652492 c 0,-4.4914482 3.576831,-8.1130692 8.042277,-8.1739842 v -0.006 h 15.574268 0.006 v 14.515539 l 3.53e-4,0.3674694 C 57.335786,10.026012 60.91228,4.5675023 60.91228,0.07603162 V -4.6820189 c 0,-4.5297281 -3.637829,-8.1768491 -8.156397,-8.1768491 z m -15.466261,8.8037588 c -4.465431,0.060975 -8.042277,5.5198552 -8.042277,10.0113259 v 4.7576753 c 0,4.529751 3.637836,8.177224 8.156397,8.177224 l 8.046229,-7.2e-4 c -0.0053,0 -0.01013,-3.52e-4 -0.01545,-3.67e-4 h 7.32134 c 4.51859,0 8.156756,-3.646754 8.156756,-8.176482 V 2.6483131 c 0,4.4914556 -3.576838,8.1127019 -8.042284,8.1736169 v 0.0068 h -15.574268 -0.006 V -3.6873393 Z"
         style="opacity:1;fill:#000000;fill-opacity:1;stroke:#4d4d4d;stroke-width:0;stroke-linecap:square;stroke-miterlimit:4;stroke-dasharray:none;stroke-opacity:1" />
      <path
         inkscape:connector-curvature="0"
         id="path24289-1-2-8"
         d="m 86.264474,-12.858831 c -0.583035,0 -1.075762,0.169965 -1.47741,0.50901 -0.388672,0.33903 -0.582892,0.885225 -0.582892,1.63863 0,0.7408493 0.19422,1.2870365 0.582892,1.6386364 0.401648,0.3515924 0.894375,0.5270848 1.47741,0.5270848 0.570082,0 1.055587,-0.1754924 1.457249,-0.5270848 0.414593,-0.3641473 0.62217,-0.9103346 0.62217,-1.6386364 0,-0.37671 -0.0585,-0.696953 -0.175177,-0.960653 -0.103658,-0.276254 -0.25266,-0.502184 -0.446993,-0.677977 -0.181387,-0.175785 -0.401287,-0.301417 -0.660419,-0.37671 -0.246165,-0.0879 -0.5118,-0.1323 -0.79683,-0.1323 z m -10.250876,0.03818 0.07493,0.97047 c -0.04823,0.143407 -0.07493,0.296272 -0.07493,0.4563 v 7.2376619 c -0.0922,-0.10032 -0.18702,-0.1995299 -0.287827,-0.2966099 -0.312788,-0.3012524 -0.67239,-0.5662348 -1.07898,-0.7947822 -0.39621,-0.2285324 -0.845205,-0.4101148 -1.345642,-0.5451598 -0.500452,-0.1350449 -1.057589,-0.2025674 -1.672732,-0.2025674 -0.969622,0 -1.855919,0.1918275 -2.658711,0.5761723 -0.8028,0.3739723 -1.491007,0.9351446 -2.064442,1.6830743 -0.573412,0.7479297 -1.016827,1.6773968 -1.329607,2.78892634 -0.312772,1.10112705 -0.469214,2.38408406 -0.469214,3.84879596 0,1.4543319 -0.129038,0.5007447 0.417014,3.8596409 0.546068,3.3589106 3.131947,5.2295076 6.10496,4.9753176 0.625553,0 1.188315,-0.0669 1.688752,-0.202057 0.500452,-0.13503 0.948922,-0.32226 1.345117,-0.561187 0.406605,-0.238928 0.761122,-0.514133 1.063485,-0.825773 0.165637,-0.1705345 0.318232,-0.3457269 0.460424,-0.5250293 v 1.9951863 l 3.175979,0.0129 c 0.0797,-8.0517263 0.02272,-16.3311754 0.02272,-24.451302 h -1.945582 z m 24.954632,6.6475402 c -1.869104,0.00225 -3.599404,0.7607322 -4.695243,2.0065642 h -0.13074 V -5.7850285 H 92.696006 V 18.890539 h 0.45165 2.845761 0.14883 l 0.091,-8.924869 a 5.6820935,5.0445216 0 0 0 4.495253,1.968314 5.6820935,5.0445216 0 0 0 3.95008,-1.425209 c 0.0158,-0.0126 0.0313,-0.0258 0.047,-0.03877 a 5.6820935,5.0445216 0 0 0 0.0951,-0.0816 c 0.2913,-0.250058 0.56104,-0.5316449 0.80665,-0.8490298 0.57344,-0.7275297 1.01685,-1.6274018 1.32961,-2.6984914 0.31279,-1.081177 0.46923,-2.334134 0.46923,-3.7588859 0,-0.5621023 -0.0261,-1.0955771 -0.0755,-1.6034844 -0.0156,-6.0304775 -3.35372,-7.5802618 -6.38245,-7.6515943 z M 84.612922,-5.7343885 V 14.010306 c 0,0.515332 -0.0564,0.934942 -0.168465,1.258297 -0.100897,0.333457 -0.251895,0.596077 -0.453712,0.788055 -0.190613,0.202094 -0.414945,0.338474 -0.672817,0.409274 -0.257858,0.0808 -0.538043,0.120923 -0.84075,0.120923 -0.392415,0 -0.740092,-0.0303 -1.042822,-0.0909 -0.302708,-0.05047 -0.59988,-0.12633 -0.891397,-0.227378 v 2.243235 c 0.257865,0.111149 0.566219,0.202049 0.924989,0.272849 0.347565,0.07072 0.790402,0.105938 1.32858,0.105938 v 5.32e-4 c 0.840877,0 1.563907,-0.121282 2.169336,-0.363795 0.616643,-0.232402 1.127002,-0.571334 1.53063,-1.015942 0.403627,-0.434489 0.700799,-0.964589 0.891397,-1.591086 0.19065,-0.616373 0.285772,-1.313767 0.285772,-2.091832 V -5.7343285 Z m 15.322824,2.7749764 c 3.279974,-0.0693 3.748544,2.5944589 3.748544,5.7948876 0,3.2004137 -0.86305,5.9265275 -3.748544,5.7948951 -2.98762,-0.1362675 -3.748034,-2.5944739 -3.748034,-5.7948951 0,-3.2004287 0.468604,-5.7256327 3.748034,-5.7948876 z M 72.29762,-2.8333222 c 3.279966,-0.0693 3.748018,2.59499145 3.748018,5.7954051 0,3.2004212 -0.862545,5.9265201 -3.748018,5.7948876 -2.987632,-0.1362749 -3.748559,-2.5944664 -3.748559,-5.7948876 0,-3.20042115 0.469125,-5.7261651 3.748559,-5.7954051 z m 27.87583,12.2770599 h 0.39429 c -0.0594,0.00225 -0.11898,0.00525 -0.17983,0.00525 -0.0731,0 -0.14351,-0.003 -0.21446,-0.00525 z"
         style="font-style:normal;font-variant:normal;font-weight:normal;font-stretch:normal;font-size:medium;line-height:1.25;font-family:'Droid Sans';-inkscape-font-specification:'Droid Sans';letter-spacing:0px;word-spacing:0px;display:inline;opacity:1;fill:#000000;fill-opacity:1;stroke:none;stroke-width:1.13629556;stroke-miterlimit:4;stroke-dasharray:none;stroke-opacity:1" />
    </g>
    <g
       id="g25022"
       transform="translate(230.62355,-282.99866)">
      <path
         id="path8561-3-7-6"
         transform="scale(0.26458333)"
         d="m -498.10742,282.69531 c -22.50202,0.30705 -40.52539,18.56226 -40.52539,41.20117 v 36.94532 c 0,22.83188 18.33172,41.21679 41.10156,41.21679 h 40.54297 c -4.9478,0 -9.6849,-0.86977 -14.07031,-2.46289 4.37982,1.58703 9.11071,2.45118 14.05078,2.45118 h 36.85547 c 22.77566,0 41.11328,-18.37706 41.11328,-41.20313 v -40.64258 c 0,22.63317 -18.02934,40.88256 -40.53711,41.18945 v 0.0293 h -78.5 -0.0312 v -28.70117 z"
         style="opacity:1;fill:#212c5f;fill-opacity:1;stroke:#4d4d4d;stroke-width:0;stroke-linecap:square;stroke-miterlimit:4;stroke-dasharray:none;stroke-opacity:1"
         inkscape:connector-curvature="0" />
      <path
         id="path8565-4-9-2"
         transform="scale(0.26458333)"
         d="m -497.09375,242.05859 c -22.76988,0 -41.10352,18.37713 -41.10352,41.20313 v 40.64258 c 0,-22.63317 18.02525,-40.88061 40.52735,-41.1875 v -0.0312 h 78.48047 0.0293 v 78.70507 h 0.002 c 22.50202,-0.30697 40.52539,-18.55624 40.52539,-41.18945 v -36.9375 c 0,-22.82608 -18.33173,-41.20508 -41.10157,-41.20508 H -460.248 Z"
         style="opacity:1;fill:#ffc91b;fill-opacity:1;stroke:#4d4d4d;stroke-width:0;stroke-linecap:square;stroke-miterlimit:4;stroke-dasharray:none;stroke-opacity:1"
         inkscape:connector-curvature="0" />
      <path
         inkscape:connector-curvature="0"
         id="path24289-1-3"
         d="m -121.34188,111.46947 c -0.58305,0 -1.07577,0.16997 -1.47743,0.50902 -0.38868,0.33904 -0.58291,0.88524 -0.58291,1.63866 0,0.74087 0.19423,1.28706 0.58291,1.63866 0.40166,0.35161 0.89438,0.5271 1.47743,0.5271 0.5701,0 1.05561,-0.17549 1.45728,-0.5271 0.4146,-0.36415 0.62218,-0.91034 0.62218,-1.63866 0,-0.37671 -0.0585,-0.69697 -0.17518,-0.96067 -0.10366,-0.27626 -0.25266,-0.50219 -0.447,-0.67799 -0.1814,-0.17579 -0.40129,-0.30142 -0.66043,-0.37672 -0.24617,-0.0879 -0.51181,-0.1323 -0.79685,-0.1323 z m -10.25105,0.0382 0.0749,0.97049 c -0.0482,0.14341 -0.0749,0.29627 -0.0749,0.4563 v 7.2378 c -0.0922,-0.10032 -0.18702,-0.19953 -0.28784,-0.29662 -0.31279,-0.30126 -0.67239,-0.56624 -1.079,-0.79479 -0.39621,-0.22854 -0.84522,-0.41013 -1.34566,-0.54518 -0.50046,-0.13504 -1.05761,-0.20257 -1.67276,-0.20257 -0.96964,0 -1.85594,0.19183 -2.65876,0.57619 -0.80281,0.37398 -1.49102,0.93515 -2.06447,1.6831 -0.57342,0.74795 -1.01685,1.67743 -1.32963,2.78898 -0.31278,1.10114 -0.46923,2.38413 -0.46923,3.84886 0,1.45436 -0.12904,0.50075 0.41703,3.85971 0.54607,3.35897 3.132,5.2296 6.10506,4.97541 0.62557,0 1.18833,-0.0669 1.68878,-0.20206 0.50046,-0.13504 0.94894,-0.32227 1.34514,-0.5612 0.40662,-0.23893 0.76114,-0.51414 1.0635,-0.82579 0.16564,-0.17054 0.31825,-0.34573 0.46044,-0.52504 v 1.99523 l 3.17603,0.0129 c 0.0797,-8.05187 0.0227,-16.33147 0.0227,-24.45174 h -1.94562 z m 24.95506,6.64766 c -1.86912,0.002 -3.59946,0.76075 -4.69532,2.0066 h -0.13074 v -1.61851 h -3.4463 v 24.67601 h 0.45165 2.84582 0.14883 l 0.091,-8.92503 a 5.6821942,5.0446111 0 0 0 4.49533,1.96835 5.6821942,5.0446111 0 0 0 3.95015,-1.42523 c 0.0158,-0.0126 0.0313,-0.0258 0.047,-0.0388 a 5.6821942,5.0446111 0 0 0 0.0951,-0.0816 c 0.2913,-0.25007 0.56105,-0.53166 0.80667,-0.84905 0.57344,-0.72754 1.01686,-1.62743 1.32963,-2.69854 0.31279,-1.0812 0.46923,-2.33418 0.46923,-3.75895 0,-0.56211 -0.0261,-1.0956 -0.0755,-1.60351 -0.0156,-6.03059 -3.35378,-7.5804 -6.38256,-7.65173 z m -16.35559,0.43873 v 19.74505 c 0,0.51534 -0.0563,0.93496 -0.16846,1.25832 -0.10091,0.33346 -0.25191,0.59608 -0.45372,0.78807 -0.19061,0.2021 -0.41496,0.33848 -0.67283,0.40928 -0.25786,0.0808 -0.53806,0.12092 -0.84077,0.12092 -0.39242,0 -0.74011,-0.0303 -1.04283,-0.0909 -0.30272,-0.0505 -0.59991,-0.12633 -0.89142,-0.22738 v 2.24328 c 0.25787,0.11115 0.56623,0.20205 0.92501,0.27285 0.34757,0.0707 0.79041,0.10594 1.3286,0.10594 v 5.1e-4 c 0.84089,0 1.56393,-0.12128 2.16937,-0.3638 0.61666,-0.23241 1.12703,-0.57135 1.53066,-1.01596 0.40363,-0.4345 0.70082,-0.96461 0.89142,-1.59112 0.19065,-0.61638 0.28577,-1.31379 0.28577,-2.09186 v -19.56314 z m 15.3231,2.77503 c 3.28003,-0.0693 3.74861,2.5945 3.74861,5.79499 0,3.20047 -0.86307,5.92663 -3.74861,5.795 -2.98768,-0.13627 -3.74809,-2.59452 -3.74809,-5.795 0,-3.20049 0.46861,-5.72573 3.74809,-5.79499 z m -27.63862,0.12609 c 3.28003,-0.0693 3.74809,2.59504 3.74809,5.79551 0,3.20048 -0.86256,5.92662 -3.74809,5.79499 -2.98768,-0.13628 -3.74861,-2.59451 -3.74861,-5.79499 0,-3.20048 0.46913,-5.72627 3.74861,-5.79551 z m 27.87633,12.27728 h 0.39429 c -0.0594,0.002 -0.11898,0.005 -0.17983,0.005 -0.0731,0 -0.14351,-0.003 -0.21446,-0.005 z"
         style="font-style:normal;font-variant:normal;font-weight:normal;font-stretch:normal;font-size:medium;line-height:1.25;font-family:'Droid Sans';-inkscape-font-specification:'Droid Sans';letter-spacing:0px;word-spacing:0px;display:inline;opacity:1;fill:#212c5f;fill-opacity:1;stroke:none;stroke-width:1.1363157;stroke-miterlimit:4;stroke-dasharray:none;stroke-opacity:1" />
    </g>
    <g
       id="g38857">
      <g
         transform="matrix(0.74999942,0,0,0.74999942,-14.026939,-12.645453)"
         id="g29572">
        <path
           inkscape:connector-curvature="0"
           style="opacity:1;fill:#212c5f;fill-opacity:1;stroke:#4d4d4d;stroke-width:0;stroke-linecap:square;stroke-miterlimit:4;stroke-dasharray:none;stroke-opacity:1"
           d="m 68.42154,-62.028024 c -5.953659,0.08124 -10.722343,4.911265 -10.722343,10.901143 v 9.775116 c 0,6.040935 4.850268,10.905276 10.874788,10.905276 h 10.726994 c -1.309105,0 -2.562463,-0.230127 -3.722769,-0.65164 1.158827,0.419902 2.410542,0.648541 3.717602,0.648541 h 9.751343 c 6.02606,0 10.877888,-4.862263 10.877888,-10.901661 v -10.753349 c 0,5.988359 -4.770263,10.816844 -10.725443,10.898042 v 0.0078 h -20.769792 -0.0083 v -7.593851 z"
           id="path8561-3-7-6-3" />
        <path
           inkscape:connector-curvature="0"
           style="opacity:1;fill:#ffc91b;fill-opacity:1;stroke:#4d4d4d;stroke-width:0;stroke-linecap:square;stroke-miterlimit:4;stroke-dasharray:none;stroke-opacity:1"
           d="m 68.68974,-72.779822 c -6.02453,0 -10.875306,4.862282 -10.875306,10.901661 v 10.753349 c 0,-5.988359 4.769181,-10.816328 10.722861,-10.897526 v -0.0083 h 20.764624 0.0078 v 20.82405 h 5.29e-4 c 5.953659,-0.08122 10.722342,-4.909672 10.722342,-10.898042 v -9.773047 c 0,-6.0394 -4.85027,-10.902177 -10.87479,-10.902177 H 78.438512 Z"
           id="path8565-4-9-2-6" />
      </g>
      <path
         inkscape:connector-curvature="0"
         id="path24289-1-3-6"
         d="m 86.264474,-67.230276 c -0.583042,0 -1.075754,0.169967 -1.477401,0.509011 -0.38868,0.339035 -0.582899,0.885226 -0.582899,1.638632 0,0.740857 0.194219,1.287037 0.582899,1.638631 0.401647,0.351604 0.894359,0.527092 1.477401,0.527092 0.57009,0 1.055595,-0.175488 1.457257,-0.527092 0.414592,-0.364143 0.622169,-0.910324 0.622169,-1.638631 0,-0.376704 -0.0585,-0.696958 -0.175177,-0.960653 -0.103657,-0.276256 -0.25266,-0.502182 -0.446992,-0.677979 -0.181403,-0.175786 -0.401287,-0.301414 -0.66042,-0.376713 -0.246164,-0.0879 -0.511799,-0.132298 -0.796837,-0.132298 z m -10.250872,0.0382 0.07493,0.970473 c -0.04823,0.143407 -0.07493,0.296265 -0.07493,0.456292 v 7.237674 c -0.0922,-0.100319 -0.187019,-0.199527 -0.287834,-0.296615 -0.312788,-0.301255 -0.672375,-0.56623 -1.07898,-0.794776 -0.396202,-0.228536 -0.845204,-0.410123 -1.345641,-0.545171 -0.500445,-0.135038 -1.057589,-0.202567 -1.672731,-0.202567 -0.969622,0 -1.855904,0.191827 -2.658711,0.576181 -0.802792,0.373973 -1.490991,0.935133 -2.064433,1.68307 -0.573412,0.747937 -1.016834,1.677401 -1.329607,2.788932 -0.312772,1.10112 -0.469222,2.384088 -0.469222,3.848792 0,1.454335 -0.129037,0.500742 0.417023,3.859642 0.546059,3.358912 3.131945,5.229509 6.10495,4.975324 0.625559,0 1.188314,-0.0669 1.688751,-0.202057 0.500452,-0.135037 0.948929,-0.322264 1.345116,-0.56119 0.40662,-0.238925 0.76113,-0.514131 1.063485,-0.825775 0.165637,-0.170537 0.318247,-0.345724 0.460432,-0.525031 v 1.995195 l 3.175977,0.0129 c 0.0797,-8.051729 0.02273,-16.331185 0.02273,-24.451313 h -1.945581 z m 24.954618,6.647544 c -1.869085,0.002 -3.599385,0.760736 -4.695228,2.006565 h -0.13074 v -1.618482 h -3.44624 v 24.675579 h 0.451642 2.845768 0.14883 l 0.091,-8.924875 a 5.682095,5.044523 0 0 0 4.495238,1.968316 5.682095,5.044523 0 0 0 3.95009,-1.425205 c 0.0158,-0.0126 0.0313,-0.0258 0.047,-0.0388 a 5.682095,5.044523 0 0 0 0.0951,-0.0816 c 0.29129,-0.250065 0.56104,-0.53165 0.80665,-0.849035 0.57343,-0.727527 1.01685,-1.627402 1.32961,-2.698493 0.31279,-1.081181 0.46922,-2.334139 0.46922,-3.758884 0,-0.562101 -0.0261,-1.095582 -0.0755,-1.603483 -0.0156,-6.030484 -3.35372,-7.580267 -6.38244,-7.651596 z m -16.355297,0.438722 v 19.744705 c 0,0.515331 -0.05633,0.934944 -0.168457,1.258298 -0.100905,0.333454 -0.251902,0.59607 -0.453712,0.788057 -0.190605,0.202096 -0.414952,0.338474 -0.672817,0.409272 -0.257858,0.0808 -0.53805,0.120918 -0.840757,0.120918 -0.392415,0 -0.7401,-0.0303 -1.042814,-0.0909 -0.302715,-0.0505 -0.599895,-0.126328 -0.891405,-0.227376 v 2.243241 c 0.257865,0.111147 0.56622,0.202046 0.924997,0.272845 0.347565,0.0707 0.790395,0.105938 1.328579,0.105938 v 5.1e-4 c 0.84087,0 1.563899,-0.121278 2.169328,-0.363794 0.61665,-0.232406 1.12701,-0.57134 1.530637,-1.015942 0.403619,-0.434492 0.700807,-0.964593 0.891404,-1.591092 0.190642,-0.61637 0.285765,-1.313767 0.285765,-2.091824 v -19.562798 z m 15.322832,2.774981 c 3.279965,-0.0693 3.748535,2.594455 3.748535,5.794889 0,3.200414 -0.86305,5.926527 -3.748535,5.794899 -2.98763,-0.136268 -3.748023,-2.594475 -3.748023,-5.794899 0,-3.200434 0.468603,-5.725629 3.748023,-5.794889 z m -27.638137,0.126089 c 3.279972,-0.0693 3.748024,2.594994 3.748024,5.795408 0,3.200424 -0.862544,5.926516 -3.748024,5.794889 -2.98763,-0.136278 -3.748542,-2.594465 -3.748542,-5.794889 0,-3.200424 0.469117,-5.72617 3.748542,-5.795408 z m 27.875842,12.277065 h 0.39428 c -0.0594,0.002 -0.11898,0.005 -0.17983,0.005 -0.0731,0 -0.1435,-0.003 -0.21445,-0.005 z"
         style="font-style:normal;font-variant:normal;font-weight:normal;font-stretch:normal;font-size:medium;line-height:1.25;font-family:'Droid Sans';-inkscape-font-specification:'Droid Sans';letter-spacing:0px;word-spacing:0px;display:inline;opacity:1;fill:#212c5f;fill-opacity:1;stroke:none;stroke-width:1.13629591;stroke-miterlimit:4;stroke-dasharray:none;stroke-opacity:1" />
    </g>
    <g
       id="g24652"
       transform="matrix(0.57586909,0,0,0.57586909,221.12599,-113.60007)">
      <g
         transform="translate(-100.67283,-1.110733)"
         id="g24643">
        <rect
           style="opacity:1;fill:#263788;fill-opacity:1;stroke:none;stroke-width:1.14776242;stroke-linecap:square;stroke-miterlimit:4;stroke-dasharray:none;stroke-opacity:1"
           id="rect24583"
           width="15.677968"
           height="15.466102"
           x="0"
           y="55.720341" />
        <rect
           y="77.330505"
           x="0"
           height="15.466102"
           width="15.677968"
           id="rect24585"
           style="opacity:1;fill:#212c5f;fill-opacity:1;stroke:none;stroke-width:1.14776242;stroke-linecap:square;stroke-miterlimit:4;stroke-dasharray:none;stroke-opacity:1" />
        <rect
           style="opacity:1;fill:#070f32;fill-opacity:1;stroke:none;stroke-width:1.14776242;stroke-linecap:square;stroke-miterlimit:4;stroke-dasharray:none;stroke-opacity:1"
           id="rect24587"
           width="15.677968"
           height="15.466102"
           x="0"
           y="98.940674" />
      </g>
      <rect
         style="opacity:1;fill:#c89221;fill-opacity:1;stroke:none;stroke-width:1.14776242;stroke-linecap:square;stroke-miterlimit:4;stroke-dasharray:none;stroke-opacity:1"
         id="rect24589"
         width="15.677968"
         height="15.466102"
         x="-79.616104"
         y="97.829941" />
      <rect
         y="76.219772"
         x="-79.616104"
         height="15.466102"
         width="15.677968"
         id="rect24591"
         style="opacity:1;fill:#ffc91b;fill-opacity:1;stroke:none;stroke-width:1.14776242;stroke-linecap:square;stroke-miterlimit:4;stroke-dasharray:none;stroke-opacity:1" />
      <rect
         style="opacity:1;fill:#ffe804;fill-opacity:1;stroke:none;stroke-width:1.14776242;stroke-linecap:square;stroke-miterlimit:4;stroke-dasharray:none;stroke-opacity:1"
         id="rect24593"
         width="15.677968"
         height="15.466102"
         x="-79.616104"
         y="54.609604" />
    </g>
  </g>
  <g
     inkscape:groupmode="layer"
     id="layer5"
     inkscape:label="Logo Horizontal"
     transform="translate(0,247)" />
</svg>
