<?xml version="1.0" encoding="UTF-8" standalone="no"?>
<!-- Created with Inkscape (http://www.inkscape.org/) -->

<svg
   xmlns:svg="http://www.w3.org/2000/svg"
   xmlns="http://www.w3.org/2000/svg"
   xmlns:xlink="http://www.w3.org/1999/xlink"
   width="240"
   height="380"
   viewBox="0 0 63.499997 100.54167"
   version="1.1"
   id="svg29622"
   >
  <defs
     id="defs29616">
    <linearGradient
       xlink:href="#linearGradient24623"
       id="linearGradient8693-4-3"
       x1="-177.82712"
       y1="97.055786"
       x2="-150.14687"
       y2="97.055786"
       gradientUnits="userSpaceOnUse"
       gradientTransform="matrix(1.13812,0,0,1.1409286,165.17913,26.0722)" />
    <linearGradient
       id="linearGradient24623">
      <stop
         style="stop-color:#070f32;stop-opacity:1"
         offset="0"
         id="stop24619" />
      <stop
         id="stop24630"
         offset="0.50069237"
         style="stop-color:#212c5f;stop-opacity:1" />
      <stop
         style="stop-color:#263788;stop-opacity:1"
         offset="1"
         id="stop24621" />
    </linearGradient>
    <linearGradient
       xlink:href="#linearGradient24599"
       id="linearGradient8679-5-6"
       x1="-187.14726"
       y1="78.934685"
       x2="-159.47401"
       y2="78.934685"
       gradientUnits="userSpaceOnUse"
       gradientTransform="matrix(1.13812,0,0,1.1409286,165.17913,26.0722)" />
    <linearGradient
       id="linearGradient24599">
      <stop
         id="stop24595"
         offset="0"
         style="stop-color:#ffe804;stop-opacity:1" />
      <stop
         style="stop-color:#ffc91b;stop-opacity:1"
         offset="0.54618984"
         id="stop24601" />
      <stop
         id="stop24597"
         offset="1"
         style="stop-color:#c89221;stop-opacity:1" />
    </linearGradient>
    <linearGradient
       xlink:href="#linearGradient24599"
       id="linearGradient8685-8-9"
       gradientUnits="userSpaceOnUse"
       x1="-187.14726"
       y1="78.934685"
       x2="-159.47401"
       y2="78.934685"
       gradientTransform="matrix(0,1.1409286,-1.13812,0,73.437443,318.82485)" />
    <linearGradient
       xlink:href="#linearGradient24638"
       id="linearGradient24617"
       gradientUnits="userSpaceOnUse"
       gradientTransform="matrix(0,1.1409286,-1.13812,0,73.329907,318.94334)"
       x1="-177.8271"
       y1="97.124535"
       x2="-150.09087"
       y2="97.095467" />
    <linearGradient
       id="linearGradient24638">
      <stop
         id="stop24632"
         offset="0"
         style="stop-color:#070f32;stop-opacity:1" />
      <stop
         style="stop-color:#212c5f;stop-opacity:1"
         offset="0.48570052"
         id="stop24634" />
      <stop
         id="stop24636"
         offset="1"
         style="stop-color:#263788;stop-opacity:1" />
    </linearGradient>
  </defs>
  <metadata
     id="metadata29619">
    </metadata>
  <g
     id="layer1"
     transform="translate(0,-196.45833)">
    <g
       id="g24810"
       transform="translate(-48.749026,132.99888)">
      <g
         transform="translate(107.2645,-31.160637)"
         id="g24658">
        <path
           id="path8561-3-7"
           d="m -37.209472,136.88435 h 20.777769 v -0.008 c 5.955179,-0.0812 10.7256773,-4.90964 10.7256773,-10.898 v 10.75357 c 0,6.0394 -4.8519873,10.90155 -10.8780483,10.90155 h -9.751469 c -5.97513,0 -10.792883,-4.78048 -10.873929,-10.74884 z"
           style="opacity:1;fill:url(#linearGradient8693-4-3);fill-opacity:1;stroke:#4d4d4d;stroke-width:0;stroke-linecap:square;stroke-miterlimit:4;stroke-dasharray:none;stroke-opacity:1"
           />
        <path
           id="path8565-4-9"
           d="m -16.321442,116.0526 h -20.772511 v 0.008 c -5.953676,0.0812 -10.722968,4.90964 -10.722968,10.898 v -10.75356 c 0,-6.03938 4.850759,-10.90153 10.875294,-10.90153 h 9.749 c 5.973627,0 10.790163,4.78047 10.871185,10.74882 z"
           style="opacity:1;fill:url(#linearGradient8679-5-6);fill-opacity:1;stroke:#4d4d4d;stroke-width:0;stroke-linecap:square;stroke-miterlimit:4;stroke-dasharray:none;stroke-opacity:1"
           />
        <path
           style="opacity:1;fill:url(#linearGradient8685-8-9);fill-opacity:1;stroke:#4d4d4d;stroke-width:0;stroke-linecap:square;stroke-miterlimit:4;stroke-dasharray:none;stroke-opacity:1"
           d="M -16.321442,136.87637 V 116.0526 h -0.008 c -0.08103,-5.96837 -4.897558,-10.74943 -10.871175,-10.74943 h 10.727089 c 6.024513,0 10.8746906,4.86273 10.8746906,10.90213 v 9.77306 c 0,5.98837 -4.7686996,10.81679 -10.7223646,10.89801 z"
           id="path8681-6"
           />
        <path
           style="opacity:1;fill:url(#linearGradient24617);fill-opacity:1;stroke:#4d4d4d;stroke-width:0;stroke-linecap:square;stroke-miterlimit:4;stroke-dasharray:none;stroke-opacity:1"
           d="m -37.209472,116.05531 v 13.23494 7.5941 h 0.008 c 0.08103,5.96988 4.897558,10.75215 10.871174,10.75215 H -37.05743 c -6.024525,0 -10.874703,-4.86396 -10.874703,-10.9049 v -9.77553 c 0,-5.98988 4.768712,-10.81952 10.722377,-10.90076 z"
           id="path8695-1"
           />
      </g>
      <path
         id="path24289-1"
         d="m 80.503862,121.5675 c -0.583047,0 -1.075775,0.16997 -1.477428,0.50902 -0.388684,0.33904 -0.582912,0.88524 -0.582912,1.63866 0,0.74087 0.194228,1.28706 0.582912,1.63866 0.401653,0.35161 0.894381,0.5271 1.477428,0.5271 0.570097,0 1.055612,-0.17549 1.457276,-0.5271 0.414606,-0.36415 0.622184,-0.91034 0.622184,-1.63866 0,-0.37671 -0.05855,-0.69697 -0.175183,-0.96067 -0.103654,-0.27626 -0.252655,-0.50219 -0.447001,-0.67799 -0.181395,-0.17579 -0.40129,-0.30142 -0.660425,-0.37672 -0.246174,-0.0879 -0.511813,-0.1323 -0.796851,-0.1323 z m -10.251054,0.0382 0.07493,0.97049 c -0.04817,0.14341 -0.07493,0.29627 -0.07493,0.4563 v 7.2378 c -0.09217,-0.10032 -0.187023,-0.19953 -0.287837,-0.29662 -0.312788,-0.30126 -0.672394,-0.56624 -1.079003,-0.79479 -0.396211,-0.22854 -0.845214,-0.41013 -1.345655,-0.54518 -0.500462,-0.13504 -1.057616,-0.20257 -1.672767,-0.20257 -0.969634,0 -1.855941,0.19183 -2.658753,0.57619 -0.802809,0.37398 -1.491028,0.93515 -2.064472,1.6831 -0.573424,0.74795 -1.016847,1.67743 -1.329635,2.78898 -0.312779,1.10114 -0.469222,2.38413 -0.469222,3.84886 0,1.45436 -0.12904,0.50075 0.417028,3.85971 0.546071,3.35897 3.131995,5.2296 6.105054,4.97541 0.62557,0 1.188336,-0.0669 1.688788,-0.20206 0.500459,-0.13504 0.948936,-0.32227 1.345136,-0.5612 0.40662,-0.23893 0.76114,-0.51414 1.063501,-0.82579 0.165642,-0.17054 0.318246,-0.34573 0.460436,-0.52504 v 1.99523 l 3.176034,0.0129 c 0.07966,-8.05187 0.02274,-16.33147 0.02274,-24.45174 h -1.945618 z m 24.955066,6.64766 c -1.869128,0.002 -3.599465,0.76075 -4.69532,2.0066 h -0.130742 v -1.61851 h -3.446301 v 24.67601 h 0.451652 2.845821 0.148828 l 0.09095,-8.92503 a 5.6821942,5.0446111 0 0 0 4.495333,1.96835 5.6821942,5.0446111 0 0 0 3.950146,-1.42523 c 0.01579,-0.0126 0.03133,-0.0258 0.04702,-0.0388 a 5.6821942,5.0446111 0 0 0 0.09509,-0.0816 c 0.291296,-0.25007 0.561052,-0.53166 0.806669,-0.84905 0.57344,-0.72754 1.01686,-1.62743 1.32963,-2.69854 0.31279,-1.0812 0.46923,-2.33418 0.46923,-3.75895 0,-0.56211 -0.0261,-1.0956 -0.0755,-1.60351 -0.0156,-6.03059 -3.353779,-7.5804 -6.382559,-7.65173 z m -16.355592,0.43873 v 19.74505 c 0,0.51534 -0.05635,0.93496 -0.168462,1.25832 -0.100905,0.33346 -0.251905,0.59608 -0.453721,0.78807 -0.190611,0.2021 -0.414954,0.33848 -0.672828,0.40928 -0.257863,0.0808 -0.538056,0.12092 -0.840774,0.12092 -0.392417,0 -0.740103,-0.0303 -1.042831,-0.0909 -0.302718,-0.0505 -0.599903,-0.12633 -0.891419,-0.22738 v 2.24328 c 0.257874,0.11115 0.566232,0.20205 0.92501,0.27285 0.347573,0.0707 0.790414,0.10594 1.3286,0.10594 v 5.1e-4 c 0.840891,0 1.563931,-0.12128 2.169377,-0.3638 0.616659,-0.23241 1.127024,-0.57135 1.530657,-1.01596 0.403629,-0.4345 0.700816,-0.96461 0.891417,-1.59112 0.190653,-0.61638 0.285771,-1.31379 0.285771,-2.09186 v -19.56314 z m 15.323097,2.77503 c 3.280029,-0.0693 3.748609,2.5945 3.748609,5.79499 0,3.20047 -0.863064,5.92663 -3.748609,5.795 -2.98768,-0.13627 -3.748092,-2.59452 -3.748092,-5.795 0,-3.20049 0.46861,-5.72573 3.748092,-5.79499 z m -27.638622,0.12609 c 3.280029,-0.0693 3.74809,2.59504 3.748092,5.79551 0,3.20048 -0.862557,5.92662 -3.748092,5.79499 -2.987681,-0.13628 -3.748609,-2.59451 -3.748609,-5.79499 0,-3.20048 0.469127,-5.72627 3.748609,-5.79551 z m 27.876334,12.27728 h 0.394291 c -0.0594,0.002 -0.118978,0.005 -0.179834,0.005 -0.0731,0 -0.14351,-0.003 -0.214457,-0.005 z"
         style="font-style:normal;font-variant:normal;font-weight:normal;font-stretch:normal;font-size:medium;line-height:1.25;font-family:'Droid Sans';-inkscape-font-specification:'Droid Sans';letter-spacing:0px;word-spacing:0px;display:inline;opacity:1;fill:#212c5f;fill-opacity:1;stroke:none;stroke-width:1.1363157;stroke-miterlimit:4;stroke-dasharray:none;stroke-opacity:1" />
    </g>
  </g>
</svg>
