<?xml version="1.0" encoding="UTF-8" standalone="no"?>
<!-- Created with Inkscape (http://www.inkscape.org/) -->

<svg
   xmlns:svg="http://www.w3.org/2000/svg"
   xmlns="http://www.w3.org/2000/svg"
   xmlns:xlink="http://www.w3.org/1999/xlink"
   width="240"
   height="380"
   viewBox="0 0 63.499997 100.54167"
   version="1.1"
   id="svg29622"
   >
  <defs
     id="defs29616">
    <linearGradient
       xlink:href="#linearGradient24623"
       id="linearGradient8693-4-3"
       x1="-177.82712"
       y1="97.055786"
       x2="-150.14687"
       y2="97.055786"
       gradientUnits="userSpaceOnUse"
       gradientTransform="matrix(1.13812,0,0,1.1409286,165.17913,26.0722)" />
    <linearGradient
       id="linearGradient24623">
      <stop
         style="stop-color:#070f32;stop-opacity:1"
         offset="0"
         id="stop24619" />
      <stop
         id="stop24630"
         offset="0.50069237"
         style="stop-color:#212c5f;stop-opacity:1" />
      <stop
         style="stop-color:#263788;stop-opacity:1"
         offset="1"
         id="stop24621" />
    </linearGradient>
    <linearGradient
       xlink:href="#linearGradient24599"
       id="linearGradient8679-5-6"
       x1="-187.14726"
       y1="78.934685"
       x2="-159.47401"
       y2="78.934685"
       gradientUnits="userSpaceOnUse"
       gradientTransform="matrix(1.13812,0,0,1.1409286,165.17913,26.0722)" />
    <linearGradient
       id="linearGradient24599">
      <stop
         id="stop24595"
         offset="0"
         style="stop-color:#ffe804;stop-opacity:1" />
      <stop
         style="stop-color:#ffc91b;stop-opacity:1"
         offset="0.54618984"
         id="stop24601" />
      <stop
         id="stop24597"
         offset="1"
         style="stop-color:#c89221;stop-opacity:1" />
    </linearGradient>
    <linearGradient
       xlink:href="#linearGradient24599"
       id="linearGradient8685-8-9"
       gradientUnits="userSpaceOnUse"
       x1="-187.14726"
       y1="78.934685"
       x2="-159.47401"
       y2="78.934685"
       gradientTransform="matrix(0,1.1409286,-1.13812,0,73.437443,318.82485)" />
    <linearGradient
       id="linearGradient24638">
      <stop
         id="stop24632"
         offset="0"
         style="stop-color:#070f32;stop-opacity:1" />
      <stop
         style="stop-color:#212c5f;stop-opacity:1"
         offset="0.48570052"
         id="stop24634" />
      <stop
         id="stop24636"
         offset="1"
         style="stop-color:#263788;stop-opacity:1" />
    </linearGradient>
  </defs>
  <metadata
     id="metadata29619">
    </metadata>
  <g
     id="layer1"
     transform="translate(0,-196.45833)">
    <g
       id="g24814"
       transform="translate(8.6103888,134.79661)">
      <path
         id="path8565-4-9-9"
         d="m 33.317669,72.344823 -10.727832,4.9e-4 c 0.007,0 0.01405,4.7e-4 0.02105,4.7e-4 h -9.762273 c -6.0247701,0 -10.8756701,4.86283 -10.8756701,10.90246 v 10.75367 c 0,-5.9886 4.76911,-10.81743 10.7230361,-10.89865 v -0.008 h 20.765705 0.0082 v 19.354057 l 4.78e-4,0.48996 c 5.953907,-0.0813 10.722566,-7.359307 10.722566,-13.347937 v -6.34407 c 0,-6.03964 -4.850437,-10.90247 -10.875198,-10.90247 z M 12.695984,84.083173 C 6.7420739,84.164473 1.9729439,91.442983 1.9729439,97.43161 v 6.34357 c 0,6.03967 4.85045,10.90297 10.8751961,10.90297 l 10.728308,-9.6e-4 c -0.0065,0 -0.01353,-4.7e-4 -0.02058,-4.9e-4 h 9.761795 c 6.024788,0 10.875678,-4.86234 10.875678,-10.90198 V 93.021053 c 0,5.988607 -4.769116,10.816937 -10.723046,10.898157 v 0.009 h -20.765703 -0.0082 V 84.573513 Z"
         style="opacity:1;fill:#000000;fill-opacity:1;stroke:#4d4d4d;stroke-width:0;stroke-linecap:square;stroke-miterlimit:4;stroke-dasharray:none;stroke-opacity:1" />
      <path
         id="path24289-1-2"
         d="m 23.144447,119.77003 c -0.583041,0 -1.075765,0.16997 -1.477415,0.50902 -0.38868,0.33903 -0.582906,0.88523 -0.582906,1.63864 0,0.74086 0.194226,1.28705 0.582906,1.63865 0.40165,0.3516 0.894374,0.52709 1.477415,0.52709 0.570092,0 1.055603,-0.17549 1.457264,-0.52709 0.414602,-0.36415 0.622178,-0.91034 0.622178,-1.63865 0,-0.37671 -0.05855,-0.69696 -0.175181,-0.96066 -0.103653,-0.27626 -0.252653,-0.50219 -0.446997,-0.67798 -0.181394,-0.17579 -0.401287,-0.30142 -0.66042,-0.37672 -0.246171,-0.0879 -0.511808,-0.1323 -0.796844,-0.1323 z m -10.250963,0.0382 0.07493,0.97048 c -0.04817,0.14341 -0.07493,0.29627 -0.07493,0.4563 v 7.23773 c -0.09217,-0.10032 -0.187022,-0.19953 -0.287835,-0.29661 -0.312785,-0.30126 -0.672388,-0.56624 -1.078993,-0.79479 -0.396208,-0.22854 -0.845207,-0.41012 -1.345643,-0.54517 -0.5004582,-0.13504 -1.0576072,-0.20257 -1.6727532,-0.20257 -0.969625,0 -1.855925,0.19183 -2.658725,0.57618 -0.80281,0.37398 -1.49102,0.93515 -2.06446,1.68309 -0.57342,0.74794 -1.01684,1.67741 -1.32962,2.78895 -0.31278,1.10114 -0.46922,2.38411 -0.46922,3.84883 0,1.45435 -0.12904,0.50075 0.41702,3.85968 0.54607,3.35894 3.13197,5.22955 6.105005,4.97536 0.625565,0 1.188326,-0.0669 1.6887742,-0.20206 0.500454,-0.13503 0.948927,-0.32226 1.345124,-0.56119 0.406616,-0.23893 0.761133,-0.51414 1.063491,-0.82578 0.165641,-0.17054 0.318243,-0.34573 0.460432,-0.52504 v 1.99521 l 3.176006,0.0129 c 0.07966,-8.0518 0.02274,-16.33132 0.02274,-24.45152 h -1.945601 z m 24.954846,6.6476 c -1.869112,0.002 -3.599432,0.76074 -4.695279,2.00658 h -0.13074 v -1.61849 h -3.44627 v 24.67579 h 0.451647 2.845797 0.148826 l 0.09095,-8.92495 a 5.6821442,5.0445666 0 0 0 4.495292,1.96833 5.6821442,5.0445666 0 0 0 3.950112,-1.42522 c 0.0158,-0.0126 0.03133,-0.0258 0.04702,-0.0388 a 5.6821442,5.0445666 0 0 0 0.09509,-0.0816 c 0.291293,-0.25006 0.561047,-0.53165 0.80666,-0.84904 0.573437,-0.72753 1.016851,-1.62741 1.32962,-2.69851 0.312788,-1.08119 0.469224,-2.33416 0.469224,-3.75892 0,-0.56211 -0.02609,-1.09559 -0.0755,-1.6035 -0.0156,-6.03053 -3.35375,-7.58033 -6.382503,-7.65166 z m -16.355448,0.43873 v 19.74487 c 0,0.51534 -0.05635,0.93495 -0.168461,1.25831 -0.100904,0.33346 -0.251902,0.59608 -0.453717,0.78806 -0.190609,0.2021 -0.41495,0.33848 -0.672822,0.40928 -0.25786,0.0808 -0.538051,0.12092 -0.840766,0.12092 -0.392414,0 -0.740097,-0.0303 -1.042822,-0.0909 -0.302715,-0.0505 -0.599898,-0.12633 -0.891411,-0.22738 v 2.24326 c 0.257872,0.11115 0.566227,0.20205 0.925002,0.27285 0.34757,0.0707 0.790407,0.10594 1.328588,0.10594 v 5.3e-4 c 0.840884,0 1.563917,-0.12128 2.169358,-0.3638 0.616653,-0.2324 1.127014,-0.57134 1.530643,-1.01595 0.403626,-0.43449 0.70081,-0.9646 0.89141,-1.5911 0.190651,-0.61638 0.285768,-1.31378 0.285768,-2.09185 v -19.56298 z m 15.322962,2.775 c 3.28,-0.0693 3.748576,2.59448 3.748576,5.79494 0,3.20044 -0.863056,5.92658 -3.748576,5.79495 -2.987654,-0.13627 -3.748059,-2.5945 -3.748059,-5.79495 0,-3.20046 0.468607,-5.72568 3.748059,-5.79494 z m -27.6383782,0.12609 c 3.2800002,-0.0693 3.7480562,2.59502 3.7480582,5.79546 0,3.20045 -0.862549,5.92657 -3.7480582,5.79494 -2.987651,-0.13628 -3.748581,-2.59449 -3.748581,-5.79494 0,-3.20045 0.46913,-5.72622 3.748581,-5.79546 z m 27.8760892,12.27717 h 0.394286 c -0.0594,0.002 -0.118977,0.005 -0.179833,0.005 -0.0731,0 -0.143509,-0.003 -0.214453,-0.005 z"
         style="font-style:normal;font-variant:normal;font-weight:normal;font-stretch:normal;font-size:medium;line-height:1.25;font-family:'Droid Sans';-inkscape-font-specification:'Droid Sans';letter-spacing:0px;word-spacing:0px;display:inline;opacity:1;fill:#000000;fill-opacity:1;stroke:none;stroke-width:1.13630569;stroke-miterlimit:4;stroke-dasharray:none;stroke-opacity:1" />
    </g>
  </g>
</svg>
