<?xml version="1.0" encoding="UTF-8" standalone="no"?>
<!-- Created with Inkscape (http://www.inkscape.org/) -->

<svg
   xmlns:svg="http://www.w3.org/2000/svg"
   xmlns="http://www.w3.org/2000/svg"
   xmlns:xlink="http://www.w3.org/1999/xlink"
   width="473"
   height="240"
   viewBox="0 0 125.14792 63.499998"
   version="1.1"
   id="svg34105"
   >
  <defs
     id="defs34099">
    <linearGradient
       id="linearGradient24623">
      <stop
         style="stop-color:#070f32;stop-opacity:1"
         offset="0"
         id="stop24619" />
      <stop
         id="stop24630"
         offset="0.50069237"
         style="stop-color:#212c5f;stop-opacity:1" />
      <stop
         style="stop-color:#263788;stop-opacity:1"
         offset="1"
         id="stop24621" />
    </linearGradient>
    <linearGradient
       id="linearGradient24599">
      <stop
         id="stop24595"
         offset="0"
         style="stop-color:#ffe804;stop-opacity:1" />
      <stop
         style="stop-color:#ffc91b;stop-opacity:1"
         offset="0.54618984"
         id="stop24601" />
      <stop
         id="stop24597"
         offset="1"
         style="stop-color:#c89221;stop-opacity:1" />
    </linearGradient>
    <linearGradient
       id="linearGradient24638">
      <stop
         id="stop24632"
         offset="0"
         style="stop-color:#070f32;stop-opacity:1" />
      <stop
         style="stop-color:#212c5f;stop-opacity:1"
         offset="0.48570052"
         id="stop24634" />
      <stop
         id="stop24636"
         offset="1"
         style="stop-color:#263788;stop-opacity:1" />
    </linearGradient>
    <linearGradient
       xlink:href="#linearGradient24623"
       id="linearGradient24672"
       gradientUnits="userSpaceOnUse"
       gradientTransform="matrix(1.13812,0,0,1.1409286,165.17913,26.0722)"
       x1="-177.82712"
       y1="97.055786"
       x2="-150.14687"
       y2="97.055786" />
    <linearGradient
       xlink:href="#linearGradient24599"
       id="linearGradient24674"
       gradientUnits="userSpaceOnUse"
       gradientTransform="matrix(1.13812,0,0,1.1409286,165.17913,26.0722)"
       x1="-187.14726"
       y1="78.934685"
       x2="-159.47401"
       y2="78.934685" />
    <linearGradient
       xlink:href="#linearGradient24599"
       id="linearGradient24676"
       gradientUnits="userSpaceOnUse"
       gradientTransform="matrix(0,1.1409286,-1.13812,0,73.437443,318.82485)"
       x1="-187.14726"
       y1="78.934685"
       x2="-159.47401"
       y2="78.934685" />
    <linearGradient
       xlink:href="#linearGradient24638"
       id="linearGradient24678"
       gradientUnits="userSpaceOnUse"
       gradientTransform="matrix(0,1.1409286,-1.13812,0,73.329907,318.94334)"
       x1="-177.8271"
       y1="97.124535"
       x2="-150.09087"
       y2="97.095467" />
  </defs>
  <metadata
     id="metadata34102">
    </metadata>
  <g
     id="layer1"
     transform="translate(0,-233.50001)">
    <g
       transform="matrix(1.3333333,0,0,1.3333333,-28.54177,406.21899)"
       id="g38851">
      <g
         id="g24668"
         transform="matrix(0.75000003,0,0,0.75000003,65.196527,-200.57912)">
        <path
           style="opacity:1;fill:url(#linearGradient24672);fill-opacity:1;stroke:#4d4d4d;stroke-width:0;stroke-linecap:square;stroke-miterlimit:4;stroke-dasharray:none;stroke-opacity:1"
           d="m -37.209472,136.88435 h 20.777769 v -0.008 c 5.955179,-0.0812 10.7256773,-4.90964 10.7256773,-10.898 v 10.75357 c 0,6.0394 -4.8519873,10.90155 -10.8780483,10.90155 h -9.751469 c -5.97513,0 -10.792883,-4.78048 -10.873929,-10.74884 z"
           id="path24660" />
        <path
           style="opacity:1;fill:url(#linearGradient24674);fill-opacity:1;stroke:#4d4d4d;stroke-width:0;stroke-linecap:square;stroke-miterlimit:4;stroke-dasharray:none;stroke-opacity:1"
           d="m -16.321442,116.0526 h -20.772511 v 0.008 c -5.953676,0.0812 -10.722968,4.90964 -10.722968,10.898 v -10.75356 c 0,-6.03938 4.850759,-10.90153 10.875294,-10.90153 h 9.749 c 5.973627,0 10.790163,4.78047 10.871185,10.74882 z"
           id="path24662" />
        <path
           id="path24664"
           d="M -16.321442,136.87637 V 116.0526 h -0.008 c -0.08103,-5.96837 -4.897558,-10.74943 -10.871175,-10.74943 h 10.727089 c 6.024513,0 10.8746906,4.86273 10.8746906,10.90213 v 9.77306 c 0,5.98837 -4.7686996,10.81679 -10.7223646,10.89801 z"
           style="opacity:1;fill:url(#linearGradient24676);fill-opacity:1;stroke:#4d4d4d;stroke-width:0;stroke-linecap:square;stroke-miterlimit:4;stroke-dasharray:none;stroke-opacity:1" />
        <path
           id="path24666"
           d="m -37.209472,116.05531 v 13.23494 7.5941 h 0.008 c 0.08103,5.96988 4.897558,10.75215 10.871174,10.75215 H -37.05743 c -6.024525,0 -10.874703,-4.86396 -10.874703,-10.9049 v -9.77553 c 0,-5.98988 4.768712,-10.81952 10.722377,-10.90076 z"
           style="opacity:1;fill:url(#linearGradient24678);fill-opacity:1;stroke:#4d4d4d;stroke-width:0;stroke-linecap:square;stroke-miterlimit:4;stroke-dasharray:none;stroke-opacity:1" />
      </g>
      <path
         style="font-style:normal;font-variant:normal;font-weight:normal;font-stretch:normal;font-size:medium;line-height:1.25;font-family:'Droid Sans';-inkscape-font-specification:'Droid Sans';letter-spacing:0px;word-spacing:0px;display:inline;opacity:1;fill:#212c5f;fill-opacity:1;stroke:none;stroke-width:1.13629675;stroke-miterlimit:4;stroke-dasharray:none;stroke-opacity:1"
         d="m 86.264491,-121.60174 c -0.583042,0 -1.075762,0.16997 -1.477402,0.50901 -0.38868,0.33903 -0.582908,0.88523 -0.582908,1.63863 0,0.74086 0.194228,1.28704 0.582908,1.63864 0.40164,0.3516 0.89436,0.52709 1.477402,0.52709 0.570083,0 1.055595,-0.17549 1.457243,-0.52709 0.414607,-0.36415 0.622185,-0.91033 0.622185,-1.63864 0,-0.3767 -0.0585,-0.69696 -0.175193,-0.96065 -0.103642,-0.27625 -0.252645,-0.50218 -0.446992,-0.67798 -0.181388,-0.17578 -0.40128,-0.30141 -0.660405,-0.37671 -0.24618,-0.0879 -0.5118,-0.1323 -0.796838,-0.1323 z m -10.250888,0.0382 0.07493,0.97047 c -0.04823,0.14341 -0.07493,0.29626 -0.07493,0.45629 v 7.23768 c -0.0922,-0.10031 -0.18702,-0.19952 -0.287827,-0.29661 -0.312788,-0.30126 -0.67239,-0.56623 -1.078995,-0.79478 -0.396203,-0.22853 -0.84519,-0.41012 -1.345628,-0.54517 -0.500445,-0.13504 -1.057597,-0.20257 -1.67274,-0.20257 -0.969615,0 -1.855905,0.19183 -2.658705,0.57618 -0.802792,0.37398 -1.491007,0.93514 -2.064435,1.68308 -0.57342,0.74794 -1.016835,1.6774 -1.329615,2.78893 -0.31278,1.10112 -0.469215,2.38409 -0.469215,3.8488 0,1.45434 -0.129038,0.50074 0.417022,3.85965 0.54606,3.358906 3.131941,5.229503 6.104948,4.975321 0.62556,0 1.188323,-0.0669 1.68876,-0.202058 0.500453,-0.135037 0.94893,-0.322267 1.345118,-0.561195 0.406612,-0.238927 0.76113,-0.514132 1.063485,-0.825772 0.165637,-0.170535 0.318232,-0.345728 0.460425,-0.52503 v 1.995195 l 3.175987,0.0129 c 0.0797,-8.051731 0.02273,-16.331201 0.02273,-24.451331 h -1.945587 z m 24.954637,6.64755 c -1.869094,0.002 -3.599405,0.76073 -4.695223,2.00656 h -0.13074 v -1.61848 h -3.446243 v 24.675598 h 0.451643 2.84577 0.14883 l 0.091,-8.92488 a 5.6820995,5.0445271 0 0 0 4.495233,1.968315 5.6820995,5.0445271 0 0 0 3.95008,-1.425202 c 0.0158,-0.0126 0.0313,-0.0258 0.047,-0.03878 a 5.6820995,5.0445271 0 0 0 0.0951,-0.08159 c 0.29128,-0.250072 0.56103,-0.531652 0.80665,-0.849037 0.57343,-0.72753 1.01684,-1.627404 1.32961,-2.698494 0.31278,-1.08118 0.46922,-2.33414 0.46922,-3.75888 0,-0.5621 -0.0261,-1.09559 -0.0755,-1.60349 -0.0156,-6.03049 -3.35372,-7.58027 -6.38246,-7.6516 z m -16.355301,0.43872 v 19.744723 c 0,0.515325 -0.05633,0.934943 -0.168458,1.258298 -0.100905,0.33345 -0.251902,0.59607 -0.45372,0.788055 -0.190612,0.202095 -0.414945,0.338475 -0.67281,0.409275 -0.257865,0.0808 -0.53805,0.120915 -0.840765,0.120915 -0.392407,0 -0.740092,-0.0303 -1.042815,-0.0909 -0.302715,-0.05047 -0.599887,-0.126323 -0.891405,-0.22737 v 2.243242 c 0.257873,0.111143 0.56622,0.202043 0.924998,0.272843 0.347572,0.07072 0.790402,0.105937 1.328572,0.105937 v 5.1e-4 c 0.840878,0 1.563908,-0.121275 2.169345,-0.363795 0.61665,-0.232402 1.127003,-0.571342 1.530638,-1.015942 0.40362,-0.43449 0.700792,-0.96459 0.89139,-1.591095 0.190657,-0.616365 0.285765,-1.313768 0.285765,-2.091825 v -19.562811 z m 15.322814,2.77498 c 3.279967,-0.0693 3.748547,2.59446 3.748547,5.7949 0,3.20042 -0.86305,5.926531 -3.748547,5.7949 -2.987615,-0.13627 -3.748011,-2.59447 -3.748011,-5.7949 0,-3.20044 0.468609,-5.72563 3.748011,-5.7949 z m -27.638137,0.12609 c 3.279975,-0.0693 3.748027,2.595 3.748027,5.79541 0,3.20043 -0.862537,5.926523 -3.748027,5.794898 -2.987633,-0.136278 -3.748553,-2.594468 -3.748553,-5.794898 0,-3.20042 0.469125,-5.72617 3.748553,-5.79541 z m 27.875854,12.277076 h 0.39428 c -0.0594,0.0023 -0.11898,0.0053 -0.17983,0.0053 -0.0731,0 -0.14352,-0.003 -0.21445,-0.0053 z"
         id="path24670"
         />
    </g>
  </g>
</svg>
