<?xml version="1.0" encoding="UTF-8" standalone="no"?>
<!-- Created with Inkscape (http://www.inkscape.org/) -->

<svg
   xmlns:svg="http://www.w3.org/2000/svg"
   xmlns="http://www.w3.org/2000/svg"
   width="473"
   height="240"
   viewBox="0 0 125.14792 63.499998"
   version="1.1"
   id="svg34105"
   >
  <defs
     id="defs34099">
    <linearGradient
       id="linearGradient24623">
      <stop
         style="stop-color:#070f32;stop-opacity:1"
         offset="0"
         id="stop24619" />
      <stop
         id="stop24630"
         offset="0.50069237"
         style="stop-color:#212c5f;stop-opacity:1" />
      <stop
         style="stop-color:#263788;stop-opacity:1"
         offset="1"
         id="stop24621" />
    </linearGradient>
    <linearGradient
       id="linearGradient24599">
      <stop
         id="stop24595"
         offset="0"
         style="stop-color:#ffe804;stop-opacity:1" />
      <stop
         style="stop-color:#ffc91b;stop-opacity:1"
         offset="0.54618984"
         id="stop24601" />
      <stop
         id="stop24597"
         offset="1"
         style="stop-color:#c89221;stop-opacity:1" />
    </linearGradient>
    <linearGradient
       id="linearGradient24638">
      <stop
         id="stop24632"
         offset="0"
         style="stop-color:#070f32;stop-opacity:1" />
      <stop
         style="stop-color:#212c5f;stop-opacity:1"
         offset="0.48570052"
         id="stop24634" />
      <stop
         id="stop24636"
         offset="1"
         style="stop-color:#263788;stop-opacity:1" />
    </linearGradient>
  </defs>
  <metadata
     id="metadata34102">
    </metadata>
  <g
     id="layer1"
     transform="translate(0,-233.50001)">
    <g
       transform="matrix(1.3333333,0,0,1.3333333,-28.541769,261.2285)"
       id="g38861"
       style="fill:#ffffff">
      <path
         id="path8565-4-9-9-6"
         d="m 52.755963,-12.858853 -8.045869,3.67e-4 c 0.0053,0 0.0105,3.53e-4 0.01582,3.53e-4 h -7.321707 c -4.518576,0 -8.156749,3.647121 -8.156749,8.1768416 v 8.0652492 c 0,-4.4914482 3.576831,-8.1130692 8.042277,-8.1739842 v -0.006 h 15.574268 0.006 v 14.515539 l 3.53e-4,0.3674694 C 57.335786,10.026012 60.91228,4.5675023 60.91228,0.07603162 V -4.6820189 c 0,-4.5297281 -3.637829,-8.1768491 -8.156397,-8.1768491 z m -15.466261,8.8037588 c -4.465431,0.060975 -8.042277,5.5198552 -8.042277,10.0113259 v 4.7576753 c 0,4.529751 3.637836,8.177224 8.156397,8.177224 l 8.046229,-7.2e-4 c -0.0053,0 -0.01013,-3.52e-4 -0.01545,-3.67e-4 h 7.32134 c 4.51859,0 8.156756,-3.646754 8.156756,-8.176482 V 2.6483131 c 0,4.4914556 -3.576838,8.1127019 -8.042284,8.1736169 v 0.0068 h -15.574268 -0.006 V -3.6873393 Z"
         style="opacity:1;fill:#ffffff;fill-opacity:1;stroke:#4d4d4d;stroke-width:0;stroke-linecap:square;stroke-miterlimit:4;stroke-dasharray:none;stroke-opacity:1" />
      <path
         id="path24289-1-2-8"
         d="m 86.264474,-12.858831 c -0.583035,0 -1.075762,0.169965 -1.47741,0.50901 -0.388672,0.33903 -0.582892,0.885225 -0.582892,1.63863 0,0.7408493 0.19422,1.2870365 0.582892,1.6386364 0.401648,0.3515924 0.894375,0.5270848 1.47741,0.5270848 0.570082,0 1.055587,-0.1754924 1.457249,-0.5270848 0.414593,-0.3641473 0.62217,-0.9103346 0.62217,-1.6386364 0,-0.37671 -0.0585,-0.696953 -0.175177,-0.960653 -0.103658,-0.276254 -0.25266,-0.502184 -0.446993,-0.677977 -0.181387,-0.175785 -0.401287,-0.301417 -0.660419,-0.37671 -0.246165,-0.0879 -0.5118,-0.1323 -0.79683,-0.1323 z m -10.250876,0.03818 0.07493,0.97047 c -0.04823,0.143407 -0.07493,0.296272 -0.07493,0.4563 v 7.2376619 c -0.0922,-0.10032 -0.18702,-0.1995299 -0.287827,-0.2966099 -0.312788,-0.3012524 -0.67239,-0.5662348 -1.07898,-0.7947822 -0.39621,-0.2285324 -0.845205,-0.4101148 -1.345642,-0.5451598 -0.500452,-0.1350449 -1.057589,-0.2025674 -1.672732,-0.2025674 -0.969622,0 -1.855919,0.1918275 -2.658711,0.5761723 -0.8028,0.3739723 -1.491007,0.9351446 -2.064442,1.6830743 -0.573412,0.7479297 -1.016827,1.6773968 -1.329607,2.78892634 -0.312772,1.10112705 -0.469214,2.38408406 -0.469214,3.84879596 0,1.4543319 -0.129038,0.5007447 0.417014,3.8596409 0.546068,3.3589106 3.131947,5.2295076 6.10496,4.9753176 0.625553,0 1.188315,-0.0669 1.688752,-0.202057 0.500452,-0.13503 0.948922,-0.32226 1.345117,-0.561187 0.406605,-0.238928 0.761122,-0.514133 1.063485,-0.825773 0.165637,-0.1705345 0.318232,-0.3457269 0.460424,-0.5250293 v 1.9951863 l 3.175979,0.0129 c 0.0797,-8.0517263 0.02272,-16.3311754 0.02272,-24.451302 h -1.945582 z m 24.954632,6.6475402 c -1.869104,0.00225 -3.599404,0.7607322 -4.695243,2.0065642 h -0.13074 V -5.7850285 H 92.696006 V 18.890539 h 0.45165 2.845761 0.14883 l 0.091,-8.924869 a 5.6820935,5.0445216 0 0 0 4.495253,1.968314 5.6820935,5.0445216 0 0 0 3.95008,-1.425209 c 0.0158,-0.0126 0.0313,-0.0258 0.047,-0.03877 a 5.6820935,5.0445216 0 0 0 0.0951,-0.0816 c 0.2913,-0.250058 0.56104,-0.5316449 0.80665,-0.8490298 0.57344,-0.7275297 1.01685,-1.6274018 1.32961,-2.6984914 0.31279,-1.081177 0.46923,-2.334134 0.46923,-3.7588859 0,-0.5621023 -0.0261,-1.0955771 -0.0755,-1.6034844 -0.0156,-6.0304775 -3.35372,-7.5802618 -6.38245,-7.6515943 z M 84.612922,-5.7343885 V 14.010306 c 0,0.515332 -0.0564,0.934942 -0.168465,1.258297 -0.100897,0.333457 -0.251895,0.596077 -0.453712,0.788055 -0.190613,0.202094 -0.414945,0.338474 -0.672817,0.409274 -0.257858,0.0808 -0.538043,0.120923 -0.84075,0.120923 -0.392415,0 -0.740092,-0.0303 -1.042822,-0.0909 -0.302708,-0.05047 -0.59988,-0.12633 -0.891397,-0.227378 v 2.243235 c 0.257865,0.111149 0.566219,0.202049 0.924989,0.272849 0.347565,0.07072 0.790402,0.105938 1.32858,0.105938 v 5.32e-4 c 0.840877,0 1.563907,-0.121282 2.169336,-0.363795 0.616643,-0.232402 1.127002,-0.571334 1.53063,-1.015942 0.403627,-0.434489 0.700799,-0.964589 0.891397,-1.591086 0.19065,-0.616373 0.285772,-1.313767 0.285772,-2.091832 V -5.7343285 Z m 15.322824,2.7749764 c 3.279974,-0.0693 3.748544,2.5944589 3.748544,5.7948876 0,3.2004137 -0.86305,5.9265275 -3.748544,5.7948951 -2.98762,-0.1362675 -3.748034,-2.5944739 -3.748034,-5.7948951 0,-3.2004287 0.468604,-5.7256327 3.748034,-5.7948876 z M 72.29762,-2.8333222 c 3.279966,-0.0693 3.748018,2.59499145 3.748018,5.7954051 0,3.2004212 -0.862545,5.9265201 -3.748018,5.7948876 -2.987632,-0.1362749 -3.748559,-2.5944664 -3.748559,-5.7948876 0,-3.20042115 0.469125,-5.7261651 3.748559,-5.7954051 z m 27.87583,12.2770599 h 0.39429 c -0.0594,0.00225 -0.11898,0.00525 -0.17983,0.00525 -0.0731,0 -0.14351,-0.003 -0.21446,-0.00525 z"
         style="font-style:normal;font-variant:normal;font-weight:normal;font-stretch:normal;font-size:medium;line-height:1.25;font-family:'Droid Sans';-inkscape-font-specification:'Droid Sans';letter-spacing:0px;word-spacing:0px;display:inline;opacity:1;fill:#ffffff;fill-opacity:1;stroke:none;stroke-width:1.13629556;stroke-miterlimit:4;stroke-dasharray:none;stroke-opacity:1" />
    </g>
  </g>
</svg>
