<?xml version="1.0" encoding="UTF-8" standalone="no"?>
<!-- Created with Inkscape (http://www.inkscape.org/) -->

<svg
   xmlns:svg="http://www.w3.org/2000/svg"
   xmlns="http://www.w3.org/2000/svg"
   width="473"
   height="240"
   viewBox="0 0 125.14792 63.499998"
   version="1.1"
   id="svg34105"
   >
  <defs
     id="defs34099">
    <linearGradient
       id="linearGradient24623">
      <stop
         style="stop-color:#070f32;stop-opacity:1"
         offset="0"
         id="stop24619" />
      <stop
         id="stop24630"
         offset="0.50069237"
         style="stop-color:#212c5f;stop-opacity:1" />
      <stop
         style="stop-color:#263788;stop-opacity:1"
         offset="1"
         id="stop24621" />
    </linearGradient>
    <linearGradient
       id="linearGradient24599">
      <stop
         id="stop24595"
         offset="0"
         style="stop-color:#ffe804;stop-opacity:1" />
      <stop
         style="stop-color:#ffc91b;stop-opacity:1"
         offset="0.54618984"
         id="stop24601" />
      <stop
         id="stop24597"
         offset="1"
         style="stop-color:#c89221;stop-opacity:1" />
    </linearGradient>
    <linearGradient
       id="linearGradient24638">
      <stop
         id="stop24632"
         offset="0"
         style="stop-color:#070f32;stop-opacity:1" />
      <stop
         style="stop-color:#212c5f;stop-opacity:1"
         offset="0.48570052"
         id="stop24634" />
      <stop
         id="stop24636"
         offset="1"
         style="stop-color:#263788;stop-opacity:1" />
    </linearGradient>
  </defs>
  <metadata
     id="metadata34102">
    </metadata>
  <g
     id="layer1"
     transform="translate(0,-233.50001)">
    <g
       transform="matrix(1.3333333,0,0,1.3333333,-28.541763,333.72374)"
       id="g38857">
      <g
         transform="matrix(0.74999942,0,0,0.74999942,-14.026939,-12.645453)"
         id="g29572">
        <path
           style="opacity:1;fill:#212c5f;fill-opacity:1;stroke:#4d4d4d;stroke-width:0;stroke-linecap:square;stroke-miterlimit:4;stroke-dasharray:none;stroke-opacity:1"
           d="m 68.42154,-62.028024 c -5.953659,0.08124 -10.722343,4.911265 -10.722343,10.901143 v 9.775116 c 0,6.040935 4.850268,10.905276 10.874788,10.905276 h 10.726994 c -1.309105,0 -2.562463,-0.230127 -3.722769,-0.65164 1.158827,0.419902 2.410542,0.648541 3.717602,0.648541 h 9.751343 c 6.02606,0 10.877888,-4.862263 10.877888,-10.901661 v -10.753349 c 0,5.988359 -4.770263,10.816844 -10.725443,10.898042 v 0.0078 h -20.769792 -0.0083 v -7.593851 z"
           id="path8561-3-7-6-3" />
        <path
           style="opacity:1;fill:#ffc91b;fill-opacity:1;stroke:#4d4d4d;stroke-width:0;stroke-linecap:square;stroke-miterlimit:4;stroke-dasharray:none;stroke-opacity:1"
           d="m 68.68974,-72.779822 c -6.02453,0 -10.875306,4.862282 -10.875306,10.901661 v 10.753349 c 0,-5.988359 4.769181,-10.816328 10.722861,-10.897526 v -0.0083 h 20.764624 0.0078 v 20.82405 h 5.29e-4 c 5.953659,-0.08122 10.722342,-4.909672 10.722342,-10.898042 v -9.773047 c 0,-6.0394 -4.85027,-10.902177 -10.87479,-10.902177 H 78.438512 Z"
           id="path8565-4-9-2-6" />
      </g>
      <path
         id="path24289-1-3-6"
         d="m 86.264474,-67.230276 c -0.583042,0 -1.075754,0.169967 -1.477401,0.509011 -0.38868,0.339035 -0.582899,0.885226 -0.582899,1.638632 0,0.740857 0.194219,1.287037 0.582899,1.638631 0.401647,0.351604 0.894359,0.527092 1.477401,0.527092 0.57009,0 1.055595,-0.175488 1.457257,-0.527092 0.414592,-0.364143 0.622169,-0.910324 0.622169,-1.638631 0,-0.376704 -0.0585,-0.696958 -0.175177,-0.960653 -0.103657,-0.276256 -0.25266,-0.502182 -0.446992,-0.677979 -0.181403,-0.175786 -0.401287,-0.301414 -0.66042,-0.376713 -0.246164,-0.0879 -0.511799,-0.132298 -0.796837,-0.132298 z m -10.250872,0.0382 0.07493,0.970473 c -0.04823,0.143407 -0.07493,0.296265 -0.07493,0.456292 v 7.237674 c -0.0922,-0.100319 -0.187019,-0.199527 -0.287834,-0.296615 -0.312788,-0.301255 -0.672375,-0.56623 -1.07898,-0.794776 -0.396202,-0.228536 -0.845204,-0.410123 -1.345641,-0.545171 -0.500445,-0.135038 -1.057589,-0.202567 -1.672731,-0.202567 -0.969622,0 -1.855904,0.191827 -2.658711,0.576181 -0.802792,0.373973 -1.490991,0.935133 -2.064433,1.68307 -0.573412,0.747937 -1.016834,1.677401 -1.329607,2.788932 -0.312772,1.10112 -0.469222,2.384088 -0.469222,3.848792 0,1.454335 -0.129037,0.500742 0.417023,3.859642 0.546059,3.358912 3.131945,5.229509 6.10495,4.975324 0.625559,0 1.188314,-0.0669 1.688751,-0.202057 0.500452,-0.135037 0.948929,-0.322264 1.345116,-0.56119 0.40662,-0.238925 0.76113,-0.514131 1.063485,-0.825775 0.165637,-0.170537 0.318247,-0.345724 0.460432,-0.525031 v 1.995195 l 3.175977,0.0129 c 0.0797,-8.051729 0.02273,-16.331185 0.02273,-24.451313 h -1.945581 z m 24.954618,6.647544 c -1.869085,0.002 -3.599385,0.760736 -4.695228,2.006565 h -0.13074 v -1.618482 h -3.44624 v 24.675579 h 0.451642 2.845768 0.14883 l 0.091,-8.924875 a 5.682095,5.044523 0 0 0 4.495238,1.968316 5.682095,5.044523 0 0 0 3.95009,-1.425205 c 0.0158,-0.0126 0.0313,-0.0258 0.047,-0.0388 a 5.682095,5.044523 0 0 0 0.0951,-0.0816 c 0.29129,-0.250065 0.56104,-0.53165 0.80665,-0.849035 0.57343,-0.727527 1.01685,-1.627402 1.32961,-2.698493 0.31279,-1.081181 0.46922,-2.334139 0.46922,-3.758884 0,-0.562101 -0.0261,-1.095582 -0.0755,-1.603483 -0.0156,-6.030484 -3.35372,-7.580267 -6.38244,-7.651596 z m -16.355297,0.438722 v 19.744705 c 0,0.515331 -0.05633,0.934944 -0.168457,1.258298 -0.100905,0.333454 -0.251902,0.59607 -0.453712,0.788057 -0.190605,0.202096 -0.414952,0.338474 -0.672817,0.409272 -0.257858,0.0808 -0.53805,0.120918 -0.840757,0.120918 -0.392415,0 -0.7401,-0.0303 -1.042814,-0.0909 -0.302715,-0.0505 -0.599895,-0.126328 -0.891405,-0.227376 v 2.243241 c 0.257865,0.111147 0.56622,0.202046 0.924997,0.272845 0.347565,0.0707 0.790395,0.105938 1.328579,0.105938 v 5.1e-4 c 0.84087,0 1.563899,-0.121278 2.169328,-0.363794 0.61665,-0.232406 1.12701,-0.57134 1.530637,-1.015942 0.403619,-0.434492 0.700807,-0.964593 0.891404,-1.591092 0.190642,-0.61637 0.285765,-1.313767 0.285765,-2.091824 v -19.562798 z m 15.322832,2.774981 c 3.279965,-0.0693 3.748535,2.594455 3.748535,5.794889 0,3.200414 -0.86305,5.926527 -3.748535,5.794899 -2.98763,-0.136268 -3.748023,-2.594475 -3.748023,-5.794899 0,-3.200434 0.468603,-5.725629 3.748023,-5.794889 z m -27.638137,0.126089 c 3.279972,-0.0693 3.748024,2.594994 3.748024,5.795408 0,3.200424 -0.862544,5.926516 -3.748024,5.794889 -2.98763,-0.136278 -3.748542,-2.594465 -3.748542,-5.794889 0,-3.200424 0.469117,-5.72617 3.748542,-5.795408 z m 27.875842,12.277065 h 0.39428 c -0.0594,0.002 -0.11898,0.005 -0.17983,0.005 -0.0731,0 -0.1435,-0.003 -0.21445,-0.005 z"
         style="font-style:normal;font-variant:normal;font-weight:normal;font-stretch:normal;font-size:medium;line-height:1.25;font-family:'Droid Sans';-inkscape-font-specification:'Droid Sans';letter-spacing:0px;word-spacing:0px;display:inline;opacity:1;fill:#212c5f;fill-opacity:1;stroke:none;stroke-width:1.13629591;stroke-miterlimit:4;stroke-dasharray:none;stroke-opacity:1" />
    </g>
  </g>
</svg>
